<svg xmlns="http://www.w3.org/2000/svg" xmlns:xlink="http://www.w3.org/1999/xlink" width="80" height="80" viewBox="0 0 80 80">
  <defs>
    <radialGradient id="radial-gradient" cx="0.5" cy="0.5" r="0.5" gradientUnits="objectBoundingBox">
      <stop offset="0" stop-color="#fff3c7"/>
      <stop offset="1" stop-color="#f9a545"/>
    </radialGradient>
    <filter id="Elipse_11492" x="0" y="0" width="80" height="80" filterUnits="userSpaceOnUse">
      <feOffset dy="3" input="SourceAlpha"/>
      <feGaussianBlur stdDeviation="3" result="blur"/>
      <feFlood flood-opacity="0.161"/>
      <feComposite operator="in" in2="blur"/>
      <feComposite in="SourceGraphic"/>
    </filter>
  </defs>
  <g id="Grupo_1102708" data-name="Grupo 1102708" transform="translate(-1273.262 -252.929)">
    <g transform="matrix(1, 0, 0, 1, 1273.26, 252.93)" filter="url(#Elipse_11492)">
      <g id="Elipse_11492-2" data-name="Elipse 11492" transform="translate(9 6)" stroke="#fff" stroke-width="4" fill="url(#radial-gradient)">
        <circle cx="31" cy="31" r="31" stroke="none"/>
        <circle cx="31" cy="31" r="29" fill="none"/>
      </g>
    </g>
    <g id="cow_4778614" transform="translate(1292.23 266.487)">
      <g id="Grupo_1099136" data-name="Grupo 1099136" transform="translate(0.573 4.453)">
        <path id="Trazado_873112" data-name="Trazado 873112" d="M40.694,87.98H50.717a3.944,3.944,0,0,1,3.944,3.944v1.545a1.972,1.972,0,0,1-1.972,1.972H38.722a1.972,1.972,0,0,1-1.972-1.972V91.924a3.944,3.944,0,0,1,3.944-3.944Z" transform="translate(-25.248 -60.916)" fill="#feedda"/>
        <path id="Trazado_873113" data-name="Trazado 873113" d="M44.562,110.676H57.338v1.545a2.3,2.3,0,0,1-2.3,2.3H46.862a2.3,2.3,0,0,1-2.3-2.3Z" transform="translate(-30.492 -76.153)" fill="#fcdbb4"/>
        <rect id="Rect치ngulo_401217" data-name="Rect치ngulo 401217" width="3.102" height="2.136" rx="1.068" transform="translate(14.439 29.987)" fill="#515165"/>
        <rect id="Rect치ngulo_401218" data-name="Rect치ngulo 401218" width="3.101" height="2.136" rx="1.068" transform="translate(26.476 32.124) rotate(180)" fill="#515165"/>
        <path id="Trazado_873114" data-name="Trazado 873114" d="M92.09,6.892a7.943,7.943,0,0,1-5.876,2.6H83.749a6.236,6.236,0,0,1,5.231,2.84,4.6,4.6,0,0,0,4.082-4.24l.176-2.462Z" transform="translate(-56.801 -5.629)" fill="#e0e0e0"/>
        <path id="Trazado_873115" data-name="Trazado 873115" d="M16.524,6.892a7.943,7.943,0,0,0,5.876,2.6h2.465a6.236,6.236,0,0,0-5.231,2.841,4.6,4.6,0,0,1-4.082-4.24L15.375,5.63Z" transform="translate(-10.897 -5.63)" fill="#e0e0e0"/>
        <path id="Trazado_873116" data-name="Trazado 873116" d="M50.97,27.992a9.151,9.151,0,0,0-.347-9.913l-.487-.7h-3.7l-.487.7a9.151,9.151,0,0,0-.347,9.913,6.185,6.185,0,0,1-1.744,8.221l-3.263,2.3a10.986,10.986,0,0,1,.134,1.694v1.305a3.925,3.925,0,0,1,2.547-.936H53.3a3.925,3.925,0,0,1,2.547.936V40.211a11.025,11.025,0,0,1,.134-1.694l-3.263-2.3a6.185,6.185,0,0,1-1.744-8.221Z" transform="translate(-27.827 -13.517)" fill="#f4f4f7"/>
        <path id="Trazado_873117" data-name="Trazado 873117" d="M35.3,27.992a9.151,9.151,0,0,1,.347-9.913l.487-.7h-4.64a6.244,6.244,0,0,0-6.244,6.244v2.412a11,11,0,0,0,2.588,7.089,11,11,0,0,1,2.454,5.394l3.263-2.3A6.185,6.185,0,0,0,35.3,27.992Z" transform="translate(-17.527 -13.517)" fill="#515165"/>
        <path id="Trazado_873118" data-name="Trazado 873118" d="M80.436,26.034V23.622a6.244,6.244,0,0,0-6.244-6.244h-4.64l.487.7a9.151,9.151,0,0,1,.347,9.913,6.185,6.185,0,0,0,1.744,8.221l3.263,2.3a11,11,0,0,1,2.454-5.394,11,11,0,0,0,2.588-7.088Z" transform="translate(-47.243 -13.517)" fill="#515165"/>
        <path id="Trazado_873119" data-name="Trazado 873119" d="M104.615,29.265a6.9,6.9,0,0,0-3.286-.274,6.221,6.221,0,0,1,.469,2.37v2.412a10.984,10.984,0,0,1-.148,1.785,5.749,5.749,0,0,0,.6.257c3.362,1.216,7.272-1.074,7.272-1.074s-1.543-4.26-4.905-5.476Z" transform="translate(-68.603 -21.255)" fill="#363644"/>
        <path id="Trazado_873120" data-name="Trazado 873120" d="M104.675,37.115a3.7,3.7,0,0,0-1.253-.2,5.786,5.786,0,0,0-.672.042v.891a3.964,3.964,0,0,0,1.345.872,3.686,3.686,0,0,0,1.253.2,6.388,6.388,0,0,0,1.367-.16A4.823,4.823,0,0,0,104.675,37.115Z" transform="translate(-69.557 -26.634)" fill="#f4f4f7"/>
        <path id="Trazado_873121" data-name="Trazado 873121" d="M6.653,29.265a6.9,6.9,0,0,1,3.286-.274,6.226,6.226,0,0,0-.468,2.37v2.412a10.986,10.986,0,0,0,.148,1.785,5.747,5.747,0,0,1-.6.257C5.66,37.03,1.75,34.741,1.75,34.741s1.541-4.26,4.9-5.476Z" transform="translate(-1.75 -21.255)" fill="#363644"/>
        <path id="Trazado_873122" data-name="Trazado 873122" d="M15.224,37.115a3.7,3.7,0,0,1,1.253-.2,5.786,5.786,0,0,1,.672.042v.891a3.964,3.964,0,0,1-1.345.872,3.686,3.686,0,0,1-1.253.2,6.387,6.387,0,0,1-1.367-.16A4.823,4.823,0,0,1,15.224,37.115Z" transform="translate(-9.426 -26.634)" fill="#f4f4f7"/>
      </g>
      <g id="Grupo_1099137" data-name="Grupo 1099137" transform="translate(-0.003 3.877)">
        <path id="Trazado_873123" data-name="Trazado 873123" d="M46.546,95.127H45.58a1.643,1.643,0,0,0,0,3.286h.966a1.643,1.643,0,0,0,0-3.286Zm0,2.136H45.58a.493.493,0,0,1,0-.986h.966a.493.493,0,0,1,0,.986Z" transform="translate(-29.497 -65.139)"/>
        <path id="Trazado_873124" data-name="Trazado 873124" d="M73.733,95.127h-.965a1.643,1.643,0,1,0,0,3.286h.965a1.643,1.643,0,1,0,0-3.286Zm0,2.136h-.965a.493.493,0,1,1,0-.986h.965a.493.493,0,1,1,0,.986Z" transform="translate(-47.75 -65.139)"/>
        <path id="Trazado_873125" data-name="Trazado 873125" d="M50.744,32.875a.57.57,0,0,0-.592.559,9.737,9.737,0,0,0,.038,1.183.575.575,0,0,0,.572.522.379.379,0,0,0,.054,0,.575.575,0,0,0,.519-.626,8.637,8.637,0,0,1-.033-1.042.575.575,0,0,0-.559-.592Z" transform="translate(-33.667 -23.345)"/>
        <path id="Trazado_873126" data-name="Trazado 873126" d="M37.479,49.868a1.008,1.008,0,0,0-1.339.975,1.4,1.4,0,0,0,.275.833,1.315,1.315,0,0,0,1.041.571,1,1,0,0,0,.592-.19,1.038,1.038,0,0,0,.414-.838A1.439,1.439,0,0,0,37.479,49.868Z" transform="translate(-24.262 -34.716)"/>
        <path id="Trazado_873127" data-name="Trazado 873127" d="M86.7,50.012a1.039,1.039,0,0,0-.924-.137,1.438,1.438,0,0,0-.983,1.351,1.038,1.038,0,0,0,.414.838,1,1,0,0,0,.592.19,1.315,1.315,0,0,0,1.041-.571,1.4,1.4,0,0,0,.275-.833A1.036,1.036,0,0,0,86.7,50.012Z" transform="translate(-56.927 -34.723)"/>
        <path id="Trazado_873128" data-name="Trazado 873128" d="M42.031,17.743c-.066-.184-1.674-4.529-5.249-5.822a7.221,7.221,0,0,0-3.138-.35l0-.007A5.169,5.169,0,0,0,37.41,6.954l.176-2.461a.575.575,0,0,0-1-.427l-1.15,1.263a7.381,7.381,0,0,1-5.45,2.411H12.076a7.381,7.381,0,0,1-5.45-2.412L5.475,4.065a.575.575,0,0,0-1,.427l.176,2.462a5.17,5.17,0,0,0,3.77,4.61l0,.007a7.227,7.227,0,0,0-3.138.35C1.707,13.214.1,17.558.031,17.743a.575.575,0,0,0,.25.69,11.968,11.968,0,0,0,5.407,1.51,6.9,6.9,0,0,0,2.328-.383,11.589,11.589,0,0,0,2.428,4.869A10.489,10.489,0,0,1,12.9,31.147V32.2a4.5,4.5,0,0,0-1.4,3.259V37a2.55,2.55,0,0,0,2.547,2.547h.02v.969A2.879,2.879,0,0,0,16.943,43.4h6.7a.575.575,0,1,0,0-1.15h-6.7a1.727,1.727,0,0,1-1.725-1.725v-.969H26.844v.969a1.709,1.709,0,0,1-.367,1.064.575.575,0,1,0,.905.71,2.846,2.846,0,0,0,.612-1.775v-.969h.021A2.55,2.55,0,0,0,30.562,37V35.459a4.5,4.5,0,0,0-1.4-3.258V31.147a10.489,10.489,0,0,1,2.453-6.718,11.589,11.589,0,0,0,2.428-4.869,6.9,6.9,0,0,0,2.327.385,11.974,11.974,0,0,0,5.407-1.51A.575.575,0,0,0,42.031,17.743ZM35.5,15.475a3.323,3.323,0,0,1,1.075.684A3.328,3.328,0,0,1,35.308,16a3.175,3.175,0,0,1-.965-.587v-.1a3.151,3.151,0,0,1,1.153.162ZM31.182,8.8a8.539,8.539,0,0,0,5.106-2.7l.031-.033-.058.8a4.022,4.022,0,0,1-3.24,3.66A7.323,7.323,0,0,0,31.182,8.8ZM9.041,10.532A4.022,4.022,0,0,1,5.8,6.872l-.058-.8.031.033A8.539,8.539,0,0,0,10.88,8.8,7.318,7.318,0,0,0,9.041,10.532Zm-1.32,4.88A3.177,3.177,0,0,1,6.755,16a3.319,3.319,0,0,1-1.264.16,3.323,3.323,0,0,1,1.075-.684,3.146,3.146,0,0,1,1.155-.164Zm-.071,3.06c-2.438.881-5.267-.277-6.343-.8C1.8,16.584,3.228,13.887,5.672,13a5.916,5.916,0,0,1,2.31-.312,7.019,7.019,0,0,0-.247,1.471,4.348,4.348,0,0,0-1.559.23,5.293,5.293,0,0,0-2.3,1.833.575.575,0,0,0,.329.914,6.934,6.934,0,0,0,1.491.174,4.262,4.262,0,0,0,1.449-.233,3.8,3.8,0,0,0,.574-.273,12.406,12.406,0,0,0,.092,1.6c-.051.023-.106.044-.16.063ZM29.411,35.46V37a1.4,1.4,0,0,1-1.4,1.4H14.047a1.4,1.4,0,0,1-1.4-1.4V35.46a3.361,3.361,0,0,1,1.207-2.58,3.41,3.41,0,0,1,2.161-.789H26.043a3.41,3.41,0,0,1,2.161.789A3.361,3.361,0,0,1,29.411,35.46Zm-1.789-4.228a4.552,4.552,0,0,0-1.58-.291H16.019a4.667,4.667,0,0,0-1.972.455v-.249a11.568,11.568,0,0,0-.09-1.427l2.976-2.1a6.792,6.792,0,0,0,1.906-8.985.575.575,0,1,0-.988.589,5.637,5.637,0,0,1-1.582,7.457l-2.541,1.794a11.565,11.565,0,0,0-2.4-4.783A10.442,10.442,0,0,1,9.01,18.65a25.806,25.806,0,0,1-.139-3.873,5.77,5.77,0,0,1,.938-3.334A5.69,5.69,0,0,1,14.542,8.89h3.55a9.829,9.829,0,0,0-.7,1.235.575.575,0,1,0,1.042.487,8.655,8.655,0,0,1,.73-1.268l.316-.454h3.1l.316.454a8.592,8.592,0,0,1,.325,9.29,6.792,6.792,0,0,0,1.906,8.985l2.976,2.1a11.568,11.568,0,0,0-.09,1.427V31.4c-.13-.057-.258-.117-.392-.166Zm3.116-7.544a11.559,11.559,0,0,0-2.407,4.783l-2.538-1.792a5.637,5.637,0,0,1-1.582-7.457,9.806,9.806,0,0,0-.23-10.333h3.541a5.69,5.69,0,0,1,4.732,2.554,5.77,5.77,0,0,1,.937,3.334,25.847,25.847,0,0,1-.139,3.873,10.442,10.442,0,0,1-2.314,5.038Zm3.674-5.217-.164-.062a12.409,12.409,0,0,0,.092-1.6,3.81,3.81,0,0,0,.574.273,4.257,4.257,0,0,0,1.449.234,6.934,6.934,0,0,0,1.491-.174.575.575,0,0,0,.329-.914,5.3,5.3,0,0,0-2.3-1.833,4.333,4.333,0,0,0-1.559-.23,7.041,7.041,0,0,0-.247-1.471,5.915,5.915,0,0,1,2.31.312c2.436.881,3.871,3.582,4.364,4.67-1.071.521-3.9,1.678-6.337.8Z" transform="translate(0.003 -3.877)"/>
      </g>
    </g>
  </g>
</svg>
