<svg xmlns="http://www.w3.org/2000/svg" xmlns:xlink="http://www.w3.org/1999/xlink" width="1241.809" height="447.47" viewBox="0 0 1241.809 447.47">
  <defs>
    <radialGradient id="radial-gradient" cx="0.403" cy="0.299" r="0.521" gradientTransform="matrix(0, 1, 1.715, 0, -0.11, -0.104)" gradientUnits="objectBoundingBox">
      <stop offset="0" stop-color="#fff6d8"/>
      <stop offset="1" stop-color="#d6f0e1"/>
    </radialGradient>
    <clipPath id="clip-path">
      <path id="Trazado_766043" data-name="Trazado 766043" d="M23.034,0C10.313,0,0,8.878,0,19.83V427.64c0,10.952,10.313,19.83,23.034,19.83H1218.775c12.721,0,23.034-8.878,23.034-19.83V19.83C1241.809,8.878,1231.5,0,1218.775,0Z" fill="url(#radial-gradient)"/>
    </clipPath>
    <clipPath id="clip-path-2">
      <path id="Trazado_875778" data-name="Trazado 875778" d="M23.034,0C10.313,0,0,8.878,0,19.83V427.64c0,10.952,10.313,19.83,23.034,19.83H1218.775c12.721,0,23.034-8.878,23.034-19.83V19.83C1241.809,8.878,1231.5,0,1218.775,0Z" transform="translate(179.571 812)" fill="url(#radial-gradient)"/>
    </clipPath>
    <radialGradient id="radial-gradient-4" cx="0" cy="0.924" r="1.343" gradientTransform="matrix(0.436, -0.9, 0.808, 0.391, -0.747, 0.563)" gradientUnits="objectBoundingBox">
      <stop offset="0" stop-color="#f9a545"/>
      <stop offset="1" stop-color="#feedda"/>
    </radialGradient>
  </defs>
  <g id="Grupo_1103642" data-name="Grupo 1103642" transform="translate(-179.096 -8939.628)">
    <g id="Grupo_1102995" data-name="Grupo 1102995" transform="translate(179.096 8939.628)">
      <g id="Grupo_1073211" data-name="Grupo 1073211" clip-path="url(#clip-path)">
        <rect id="Rectángulo_378055" data-name="Rectángulo 378055" width="767.633" height="1316.637" transform="matrix(0.271, -0.962, 0.962, 0.271, -116.861, 414.525)" fill="url(#radial-gradient)"/>
      </g>
    </g>
    <g id="Enmascarar_grupo_1098722" data-name="Enmascarar grupo 1098722" transform="translate(-0.476 8127.628)" clip-path="url(#clip-path-2)">
      <g id="Grupo_1102998" data-name="Grupo 1102998" transform="translate(208.844)">
        <g id="Grupo_1102997" data-name="Grupo 1102997" transform="translate(947.504 797.389)">
          <path id="Trazado_875775" data-name="Trazado 875775" d="M6.585,51.653c-5.5,7.575-8.44,17.643-5.3,26.462,6.062,17.032,31.178,22.628,34.5,40.4,2.18,11.66-6.39,22.344-14.516,30.985S4.252,168.355,5.634,180.137c.959,8.183,7.055,15.157,14.454,18.783s15.927,4.306,24.146,3.723a85.3,85.3,0,0,0,29.066-7.36c16.583-7.51,31.319-20.5,49.434-22.291,7.049-.7,14.99.832,19.265,6.481,4.569,6.034,3.489,14.507,5.644,21.762,4.376,14.719,22.457,22.149,37.4,18.621s26.656-15.363,34.72-28.431c18.09-29.309,21.307-65.3,21.035-99.743-.2-25.5-3.342-55.212-21.678-74.863C200.587-3.045,160.008-.749,135.662,1.33,111.4,3.4,87.088,7.55,64.152,15.919,44.7,23.02,19.022,34.52,6.585,51.653" transform="translate(63.553 0)" fill="url(#radial-gradient-4)"/>
          <path id="Trazado_875776" data-name="Trazado 875776" d="M88.954.059c-10.721,13.606-25.5,22.985-40.195,31.748-7.44,4.436-14.945,8.775-22.162,13.57-3.506,2.33-6.941,4.767-10.251,7.371a64.643,64.643,0,0,0-9.578,8.8C1.874,67.328-2.561,75.927,1.74,83.27c4.409,7.53,14.344,8.2,21.9,6.08a95.218,95.218,0,0,0,13.864-5.642c4.516-2.08,9-4.217,13.493-6.356,9.1-4.335,18.193-8.685,27.49-12.579,17.967-7.526,37.026-13.439,56.69-13.288,12.775.1,28.326,2.767,36.724,13.449,11.006,14,1.876,32.715-5.208,46.184a195.9,195.9,0,0,0-12.479,28.1q-2.525,7.43-4.334,15.076a82.2,82.2,0,0,0-2.353,14.719c-.433,8.559,1.634,17,7.455,23.468,4.935,5.485,11.76,9.049,18.85,10.863,17.73,4.535,35.18-2.773,50.248-11.723,4.129-2.453,8.167-5.054,12.2-7.666.362-.235.025-.817-.339-.58-15.44,10-32.688,21.287-51.854,20.745-15.491-.437-31.884-9.03-35.245-25.248-2.08-10.034.527-20.639,3.2-30.311a164.961,164.961,0,0,1,11.14-29.2c4.347-8.779,9.558-17.228,12.438-26.655,2.083-6.821,2.971-14.355.593-21.226-4.184-12.089-16.957-17.638-28.692-19.609-17.211-2.892-35.1.323-51.52,5.65C77.456,63.541,60.035,72.445,42.44,80.732,37.859,82.889,33.279,85.11,28.578,87c-4.572,1.835-9.512,3.288-14.488,2.788-4.255-.427-8.621-2.3-11.19-5.834C.318,80.391.111,75.927,1.409,71.839,4.125,63.288,11.518,57.138,18.4,51.9A234.16,234.16,0,0,1,39.56,37.9c14.343-8.64,29.3-16.836,41.449-28.535A85.661,85.661,0,0,0,89.2.3c.132-.171-.105-.413-.241-.241" transform="translate(0 27.939)" fill="#9bb19f"/>
        </g>
        <path id="Trazado_875877" data-name="Trazado 875877" d="M876.2,196.24a21.722,21.722,0,0,1,3.595,10.937c.385,11.488-10.318,20.93-21.582,23.225s-22.853-.756-33.94-3.785L705.864,194.263c-14.117-3.857-47.133-12.972-59.7-.021-13.949,14.38,3.175,37.793,16.151,47.13C679.6,253.8,701.507,260.145,715.5,276.19c3.8,4.357,7.015,9.8,6.528,15.556-1.29,15.274-23.129,16.642-38.045,13.1a1162.073,1162.073,0,0,1-154.031-48.064c-24.874-9.7-50.247-20.437-76.948-20.33-4.77.019-9.961.566-13.41,3.863-7.871,7.521-.267,20.571,7.821,27.859s17.693,17.734,12.659,27.387c-4.889,9.372-18.561,7.931-28.708,4.968C364.45,280.987,297.55,255.6,236.46,221.794c-56.569-31.3-124.425-44.378-185.63-66.54,52.652,10.053,107.239-.33,158.119-17.2s99.453-40.145,150.338-57C440.435,54.185,529.677,42.224,614.9,51.907c48.05,5.46,87.819,30.652,128.144,55.31,39.943,24.425,82.438,46.345,119.639,75.343,5.007,3.9,10.187,8.4,13.521,13.681" transform="matrix(0.998, -0.07, 0.07, 0.998, -375.001, 727.88)" fill="#d3e8d7" opacity="0.7"/>
      </g>
    </g>
  </g>
</svg>
