<svg xmlns="http://www.w3.org/2000/svg" xmlns:xlink="http://www.w3.org/1999/xlink" width="1600" height="220" viewBox="0 0 1600 220">
  <defs>
    <linearGradient id="linear-gradient" y1="1" x2="1.009" y2="1" gradientUnits="objectBoundingBox">
      <stop offset="0" stop-color="#e6f1e8"/>
      <stop offset="1" stop-color="#c8e3cd"/>
    </linearGradient>
    <clipPath id="clip-path">
      <path id="Recurso_1" data-name="Recurso 1" d="M0,0H1600V220H0Z" transform="translate(-10858 -13150)" fill="none" stroke="#707070" stroke-width="1"/>
    </clipPath>
    <radialGradient id="radial-gradient" cx="0" cy="0.924" r="1.343" gradientTransform="matrix(0.436, -0.9, 0.808, 0.391, -0.747, 0.563)" gradientUnits="objectBoundingBox">
      <stop offset="0" stop-color="#f9a545"/>
      <stop offset="1" stop-color="#feedda"/>
    </radialGradient>
    <clipPath id="clip-path-2">
      <rect id="Rectángulo_401229" data-name="Rectángulo 401229" width="238.257" height="317.827" fill="none"/>
    </clipPath>
    <clipPath id="clip-path-3">
      <rect id="Rectángulo_401230" data-name="Rectángulo 401230" width="54.192" height="48.852" transform="translate(0 0)" fill="#c1ddc7"/>
    </clipPath>
    <clipPath id="clip-path-4">
      <rect id="Rectángulo_401231" data-name="Rectángulo 401231" width="41.91" height="32.962" transform="translate(0 0)" fill="#f2f8f4"/>
    </clipPath>
  </defs>
  <g id="Grupo_1102921" data-name="Grupo 1102921" transform="translate(0 -70)">
    <g id="Grupo_1099174" data-name="Grupo 1099174">
      <path id="Recurso_1-2" data-name="Recurso 1" d="M1600,0H0V220H1600Z" transform="translate(0 70)" fill="url(#linear-gradient)"/>
      <g id="Enmascarar_grupo_1098670" data-name="Enmascarar grupo 1098670" transform="translate(10858 13220)" clip-path="url(#clip-path)">
        <g id="Grupo_1099173" data-name="Grupo 1099173">
          <g id="Grupo_1099166" data-name="Grupo 1099166" transform="translate(-10383.734 -13075.822)">
            <path id="Trazado_873260" data-name="Trazado 873260" d="M327.086,107.424a1.557,1.557,0,0,0,0-3.113,1.557,1.557,0,0,0,0,3.113" transform="translate(25.92 8.305)" fill="#9bb19f"/>
            <path id="Trazado_873261" data-name="Trazado 873261" d="M305.915,99.946a.978.978,0,0,0,0-1.955.978.978,0,0,0,0,1.955" transform="translate(24.279 7.801)" fill="#9bb19f"/>
            <path id="Trazado_873262" data-name="Trazado 873262" d="M286.8,123.175a1.206,1.206,0,0,0,0-2.41,1.206,1.206,0,0,0,0,2.41" transform="translate(22.74 9.614)" fill="#9bb19f"/>
            <path id="Trazado_873263" data-name="Trazado 873263" d="M272.695,116.294a1.234,1.234,0,0,0,0-2.467,1.234,1.234,0,0,0,0,2.467" transform="translate(21.615 9.062)" fill="#9bb19f"/>
            <path id="Trazado_873264" data-name="Trazado 873264" d="M249.959,106.935l-1.9-.023a1.366,1.366,0,0,0-.939.389,1.481,1.481,0,0,0-.389.939,1.336,1.336,0,0,0,.389.939,1.351,1.351,0,0,0,.939.39l1.9-.053a1.351,1.351,0,0,0,.912-.378,1.291,1.291,0,0,0,0-1.826,1.354,1.354,0,0,0-.912-.378" transform="translate(19.643 8.511)" fill="#9bb19f"/>
            <path id="Trazado_873265" data-name="Trazado 873265" d="M228.67,102.445a1.092,1.092,0,0,0,0-2.182,1.092,1.092,0,0,0,0,2.182" transform="translate(18.121 7.982)" fill="#9bb19f"/>
            <path id="Trazado_873266" data-name="Trazado 873266" d="M205.934,110.192a1.6,1.6,0,0,0,0-3.188,1.6,1.6,0,0,0,0,3.188" transform="translate(16.272 8.519)" fill="#9bb19f"/>
            <path id="Trazado_873267" data-name="Trazado 873267" d="M162.115,122.624a1.4,1.4,0,0,0,0-2.79,1.4,1.4,0,0,0,0,2.79" transform="translate(12.799 9.54)" fill="#9bb19f"/>
            <path id="Trazado_873268" data-name="Trazado 873268" d="M133.843,103.227a1.111,1.111,0,0,0,0-2.221,1.111,1.111,0,0,0,0,2.221" transform="translate(10.57 8.042)" fill="#9bb19f"/>
            <path id="Trazado_873269" data-name="Trazado 873269" d="M123.283,89.66l-1.9,0a.2.2,0,0,0,0,.4l1.9-.035a.18.18,0,0,0,0-.361" transform="translate(9.648 7.138)" fill="#9bb19f"/>
            <path id="Trazado_873270" data-name="Trazado 873270" d="M100.326,87.333a.778.778,0,0,0,0-1.556.778.778,0,0,0,0,1.556" transform="translate(7.927 6.829)" fill="#9bb19f"/>
            <path id="Trazado_873271" data-name="Trazado 873271" d="M70.283,56.921a1.671,1.671,0,0,0,0-3.34,1.671,1.671,0,0,0,0,3.34" transform="translate(5.467 4.266)" fill="#9bb19f"/>
            <path id="Trazado_873272" data-name="Trazado 873272" d="M21.222,34.914l-3.792.022a1.4,1.4,0,1,0,0,2.808l3.792-.04a1.395,1.395,0,0,0,0-2.79" transform="translate(1.276 2.779)" fill="#9bb19f"/>
            <path id="Trazado_873273" data-name="Trazado 873273" d="M565.815,72.54l-1.9.033a1.6,1.6,0,0,0-1.087.451,1.136,1.136,0,0,0-.317.494,1.159,1.159,0,0,0-.133.592,1.558,1.558,0,0,0,.45,1.087,1.6,1.6,0,0,0,1.087.45l1.9,0a1.607,1.607,0,0,0,1.1-.456,1.73,1.73,0,0,0,.456-1.1,1.571,1.571,0,0,0-.456-1.1,1.6,1.6,0,0,0-1.1-.456" transform="translate(44.773 5.775)" fill="#9bb19f"/>
            <path id="Trazado_873274" data-name="Trazado 873274" d="M529.09,63.828q.018.947.035,1.9a1.4,1.4,0,0,0,.394.953,1.023,1.023,0,0,0,.434.279,1.011,1.011,0,0,0,.519.116,1.358,1.358,0,0,0,.952-.394,1.4,1.4,0,0,0,.4-.953q0-.947,0-1.9a1.407,1.407,0,0,0-.4-.966,1.522,1.522,0,0,0-.966-.4,1.384,1.384,0,0,0-.966.4,1.4,1.4,0,0,0-.4.966" transform="translate(42.122 4.973)" fill="#9bb19f"/>
            <path id="Trazado_873275" data-name="Trazado 873275" d="M514.883,95.093a1.291,1.291,0,0,0,0-2.581,1.291,1.291,0,0,0,0,2.581" transform="translate(40.891 7.365)" fill="#9bb19f"/>
            <path id="Trazado_873276" data-name="Trazado 873276" d="M483.354,107.365a1.035,1.035,0,0,0,0-2.069,1.035,1.035,0,0,0,0,2.069" transform="translate(38.401 8.383)" fill="#9bb19f"/>
            <path id="Trazado_873277" data-name="Trazado 873277" d="M451.6,88.485a1.206,1.206,0,0,0,0-2.41,1.206,1.206,0,0,0,0,2.41" transform="translate(35.86 6.853)" fill="#9bb19f"/>
            <path id="Trazado_873278" data-name="Trazado 873278" d="M434.126,99.162a1.206,1.206,0,0,0,0-2.41,1.206,1.206,0,0,0,0,2.41" transform="translate(34.469 7.703)" fill="#9bb19f"/>
            <path id="Trazado_873279" data-name="Trazado 873279" d="M423.719,115.1a1.253,1.253,0,0,0,0-2.5,1.253,1.253,0,0,0,0,2.5" transform="translate(33.637 8.964)" fill="#9bb19f"/>
            <path id="Trazado_873280" data-name="Trazado 873280" d="M369.462,138.327a1.215,1.215,0,0,0,0-2.429,1.215,1.215,0,0,0,0,2.429" transform="translate(29.32 10.819)" fill="#9bb19f"/>
            <path id="Trazado_873281" data-name="Trazado 873281" d="M362.028,87.468a1.225,1.225,0,0,0,0-2.449,1.225,1.225,0,0,0,0,2.449" transform="translate(28.728 6.769)" fill="#9bb19f"/>
            <path id="Trazado_873282" data-name="Trazado 873282" d="M353.185,80.4a1.12,1.12,0,0,0,0-2.239,1.12,1.12,0,0,0,0,2.239" transform="translate(28.032 6.222)" fill="#9bb19f"/>
            <path id="Trazado_873283" data-name="Trazado 873283" d="M260.059,71.091a1.566,1.566,0,0,0,0-3.131,1.566,1.566,0,0,0,0,3.131" transform="translate(20.584 5.41)" fill="#9bb19f"/>
            <path id="Trazado_873284" data-name="Trazado 873284" d="M224.908,70.925a1.149,1.149,0,0,0,0-2.3,1.149,1.149,0,0,0,0,2.3" transform="translate(17.817 5.463)" fill="#9bb19f"/>
            <path id="Trazado_873285" data-name="Trazado 873285" d="M159.97,75.1a1.282,1.282,0,0,0,0-2.562,1.282,1.282,0,0,0,0,2.562" transform="translate(12.637 5.775)" fill="#9bb19f"/>
            <path id="Trazado_873286" data-name="Trazado 873286" d="M149.372,68.08a1.206,1.206,0,0,0,0-2.41,1.206,1.206,0,0,0,0,2.41" transform="translate(11.799 5.228)" fill="#9bb19f"/>
            <path id="Trazado_873287" data-name="Trazado 873287" d="M213.164,141.043a.94.94,0,0,0,0-1.879.94.94,0,0,0,0,1.879" transform="translate(16.898 11.079)" fill="#9bb19f"/>
            <path id="Trazado_873288" data-name="Trazado 873288" d="M348.338,131.564a1.3,1.3,0,0,0,0-2.6,1.3,1.3,0,0,0,0,2.6" transform="translate(27.631 10.267)" fill="#9bb19f"/>
            <path id="Trazado_873289" data-name="Trazado 873289" d="M298.672,70.455a1.263,1.263,0,0,0,0-2.524,1.263,1.263,0,0,0,0,2.524" transform="translate(23.681 5.409)" fill="#9bb19f"/>
            <path id="Trazado_873290" data-name="Trazado 873290" d="M411.031,67.563a1.045,1.045,0,0,0,0-2.088,1.045,1.045,0,0,0,0,2.088" transform="translate(32.642 5.213)" fill="#9bb19f"/>
            <path id="Trazado_873291" data-name="Trazado 873291" d="M444.425,67.672l1.9-.025a1.435,1.435,0,0,0,.98-.406,1.539,1.539,0,0,0,.4-.979,1.4,1.4,0,0,0-.4-.979,1.44,1.44,0,0,0-.98-.406l-1.9.005a1.441,1.441,0,0,0-.987.408,1.551,1.551,0,0,0-.408.987,1.414,1.414,0,0,0,.408.987,1.436,1.436,0,0,0,.987.408" transform="translate(35.27 5.165)" fill="#9bb19f"/>
            <path id="Trazado_873292" data-name="Trazado 873292" d="M483.057,68.924a1.215,1.215,0,0,0,0-2.429,1.215,1.215,0,0,0,0,2.429" transform="translate(38.364 5.294)" fill="#9bb19f"/>
            <path id="Trazado_873293" data-name="Trazado 873293" d="M467.681,124.889l3.792-.125a.788.788,0,1,0,0-1.575l-3.792-.065a.883.883,0,0,0,0,1.765" transform="translate(37.163 9.802)" fill="#9bb19f"/>
            <path id="Trazado_873294" data-name="Trazado 873294" d="M550.093,106.95a1.149,1.149,0,0,0,0-2.3,1.149,1.149,0,0,0,0,2.3" transform="translate(43.706 8.332)" fill="#9bb19f"/>
            <path id="Trazado_873295" data-name="Trazado 873295" d="M126.97,121a1.253,1.253,0,0,0,0-2.5,1.253,1.253,0,0,0,0,2.5" transform="translate(10.012 9.434)" fill="#9bb19f"/>
            <path id="Trazado_873296" data-name="Trazado 873296" d="M79.363,101.5a.731.731,0,0,0,0-1.462.731.731,0,0,0,0,1.462" transform="translate(6.262 7.965)" fill="#9bb19f"/>
            <path id="Trazado_873297" data-name="Trazado 873297" d="M42.267,70.706a1.215,1.215,0,0,0,0-2.429,1.215,1.215,0,0,0,0,2.429" transform="translate(3.272 5.436)" fill="#9bb19f"/>
            <path id="Trazado_873298" data-name="Trazado 873298" d="M41.317,25.741l.013-1.9a1.222,1.222,0,0,0-.348-.839,1.186,1.186,0,0,0-2.024.839q.021.947.043,1.9a1.208,1.208,0,0,0,.34.818,1.157,1.157,0,0,0,1.637,0,1.21,1.21,0,0,0,.339-.818" transform="translate(3.101 1.804)" fill="#9bb19f"/>
            <path id="Trazado_873299" data-name="Trazado 873299" d="M1.339,2.676l1.9-.035a1.369,1.369,0,0,0,.933-.385,1.344,1.344,0,0,0,.387-.933A1.332,1.332,0,0,0,4.167.391,1.373,1.373,0,0,0,3.235,0l-1.9,0A1.383,1.383,0,0,0,.393.392,1.013,1.013,0,0,0,.116.823,1.009,1.009,0,0,0,0,1.339a1.347,1.347,0,0,0,.392.946,1.372,1.372,0,0,0,.946.392" transform="translate(0 0)" fill="#9bb19f"/>
            <path id="Trazado_873300" data-name="Trazado 873300" d="M109.2,61.94q0,.947.005,1.9a1.576,1.576,0,0,0,.448,1.081,1.7,1.7,0,0,0,1.08.447,1.542,1.542,0,0,0,1.081-.447,1.573,1.573,0,0,0,.447-1.081q-.011-.947-.024-1.9a1.576,1.576,0,0,0-.445-1.073,1.689,1.689,0,0,0-1.074-.445,1.533,1.533,0,0,0-1.073.445,1.572,1.572,0,0,0-.445,1.073" transform="translate(8.694 4.81)" fill="#9bb19f"/>
            <path id="Trazado_873301" data-name="Trazado 873301" d="M198.344,52.56l.01-1.16a1.652,1.652,0,0,0-3.3,0l-.01,1.16c-.017,2.151,3.393,2.152,3.34,0-.01-.386-.018-.773-.028-1.16-.052-2.121-3.354-2.129-3.3,0l.029,1.16a1.633,1.633,0,0,0,3.264,0" transform="translate(15.527 3.965)" fill="#9bb19f"/>
          </g>
          <path id="Trazado_873302" data-name="Trazado 873302" d="M5.575,43.734C.92,50.148-1.571,58.672,1.087,66.139,6.22,80.56,27.486,85.3,30.3,100.344c1.846,9.872-5.41,18.918-12.291,26.235S3.6,142.544,4.77,152.52c.812,6.929,5.974,12.833,12.238,15.9s13.485,3.646,20.444,3.152a72.226,72.226,0,0,0,24.61-6.232c14.041-6.359,26.518-17.359,41.855-18.874,5.968-.59,12.692.7,16.311,5.488,3.869,5.109,2.954,12.283,4.779,18.426,3.7,12.462,19.014,18.753,31.667,15.766s22.569-13.007,29.4-24.072c15.317-24.816,18.04-55.29,17.81-84.451-.172-21.595-2.83-46.747-18.355-63.386C169.835-2.578,135.477-.634,114.863,1.127,94.324,2.881,73.736,6.393,54.316,13.479,37.844,19.491,16.106,29.228,5.575,43.734" transform="translate(-9446.754 -13207.194)" fill="url(#radial-gradient)"/>
          <path id="Trazado_873303" data-name="Trazado 873303" d="M581.172,60.741a15.554,15.554,0,0,0,1.459-8.114c-.872-8.184-9.4-13.813-17.618-14.318s-16.129,2.814-23.689,6.066L460.587,79.118c-9.625,4.142-32.129,13.9-42.327,5.964-11.324-8.807-1.515-27.115,6.755-35.029,11.015-10.538,25.916-17.218,34.239-29.989,2.26-3.468,4-7.645,3.079-11.681-2.437-10.7-18.059-9.5-28.283-5.5A832.108,832.108,0,0,0,329.619,52.315c-16.671,9.36-33.592,19.5-52.536,22.084-3.384.462-7.12.591-9.894-1.4-6.331-4.548-2.239-14.56,2.769-20.534s10.779-14.338,6.247-20.681c-4.4-6.158-13.952-3.774-20.851-.662-45.5,20.528-90.409,45.2-130.357,75.255C88,134.209,41.191,150.242,0,172.056c36.333-12.376,76.074-10.453,113.834-3.563s74.522,18.556,112.283,25.434c60.218,10.969,124.69,10.557,184.152-4.8,33.528-8.66,59.216-30.486,85.353-51.99,25.889-21.3,53.837-41.078,77.326-65.347,3.161-3.267,6.386-6.971,8.224-11.048" transform="translate(-11021.754 -13075.493)" fill="#d3e8d7"/>
          <path id="Trazado_873304" data-name="Trazado 873304" d="M621.526,64.959a16.635,16.635,0,0,0,1.56-8.677c-.932-8.753-10.055-14.772-18.841-15.312S587,43.979,578.911,47.457L492.569,84.611c-10.294,4.43-34.36,14.861-45.266,6.378-12.11-9.418-1.621-29,7.224-37.461,11.78-11.269,27.716-18.413,36.616-32.071,2.417-3.709,4.276-8.176,3.292-12.493C491.829-2.48,475.122-1.19,464.189,3.083A889.886,889.886,0,0,0,352.506,55.947c-17.829,10.01-35.925,20.853-56.184,23.617-3.619.494-7.614.632-10.581-1.5C278.97,73.2,283.346,62.493,288.7,56.1s11.527-15.334,6.681-22.117c-4.706-6.586-14.921-4.036-22.3-.708-48.66,21.953-96.686,48.334-139.409,80.481C94.114,143.528,44.051,160.674,0,184c38.856-13.235,81.356-11.178,121.738-3.81s79.7,19.844,120.079,27.2c64.4,11.731,133.348,11.29,196.939-5.135,35.856-9.262,63.328-32.6,91.28-55.6,27.686-22.779,57.575-43.93,82.7-69.885,3.381-3.494,6.83-7.455,8.8-11.816" transform="matrix(-0.998, -0.07, 0.07, -0.998, -9172.399, -12782.05)" fill="#d3e8d7"/>
          <g id="Grupo_1099168" data-name="Grupo 1099168" transform="translate(-10296.258 -13324.163)">
            <g id="Grupo_1099167" data-name="Grupo 1099167" clip-path="url(#clip-path-2)">
              <path id="Trazado_873305" data-name="Trazado 873305" d="M237.812.114A455.759,455.759,0,0,0,51.6,79.379c-16.6,12.038-32.86,25.813-43.242,43.784-4.5,7.8-8.915,17.128-8.3,26.368.253,3.819,1.511,7.707,4.449,10.31a12.649,12.649,0,0,0,11.412,2.63c4.762-1.1,9-3.962,12.775-6.955,4.288-3.4,8.191-7.273,12.415-10.759a192.887,192.887,0,0,1,28.058-19.248q7.384-4.162,15.118-7.662a112.439,112.439,0,0,1,15.3-6.083c3.9-1.107,10.6-1.847,11.891,3.351,1.373,5.546-5.688,9.808-9.469,12.349-17.181,11.546-36.1,21.111-50.71,36.069a67.719,67.719,0,0,0-9.738,12.11c-2.418,4.02-4.092,8.832-2.816,13.52,1.024,3.763,3.845,7.222,7.861,7.838,5.41.83,10.264-3.107,14.368-6.054,17.147-12.313,32.893-26.423,49.684-39.2,16.66-12.673,34.721-24.3,55.011-30.134,5.922-1.7,12.372-2.843,18.405-1.009,4.841,1.472,9.261,5.39,10.577,10.379,1.549,5.879-2.4,10.753-6.31,14.641a81.36,81.36,0,0,1-13.287,10.513c-9.195,5.945-19.173,10.527-28.9,15.5-9.209,4.7-18.293,9.656-27.159,14.979-17.577,10.554-34.4,22.6-49.031,37.014a171.047,171.047,0,0,0-19.467,22.723c-5.616,7.908-11.109,16.564-14.357,25.754-2.643,7.481-4.2,17.2.991,24,5.844,7.647,16.862,7.047,24.485,2.6,4.583-2.673,8.344-6.512,11.812-10.473,3.838-4.383,7.544-8.878,11.423-13.226q11.941-13.39,24.917-25.808c8.587-8.217,17.4-16.44,26.9-23.6,8.88-6.7,19.56-12.857,31.092-11.859,4.848.42,12.033,2.713,11.32,8.889-.348,3.015-2.47,5.572-4.514,7.667-1.849,1.894-3.823,3.674-5.818,5.412-7.934,6.914-16.616,12.927-24.4,20.025-6.776,6.181-12.975,13.231-16.251,21.913a41.427,41.427,0,0,0-2,23.57c1.608,7.022,5.73,13.151,12.163,16.566.526.279.994-.52.467-.8-15.465-8.21-14.795-29.711-7.817-43.368,4.549-8.9,12.3-15.945,19.909-22.218,8.049-6.631,16.654-12.671,24.051-20.06,3.073-3.07,6.567-7.531,4.722-12.131-1.6-3.981-6.2-5.669-10.122-6.244-10.648-1.564-20.887,3.192-29.462,9.071-9.4,6.445-17.9,14.362-26.227,22.112Q100.641,256.365,88.5,269.6q-6.013,6.558-11.766,13.349c-3.461,4.084-6.869,8.279-11,11.72-4.2,3.5-9.2,6.063-14.738,6.38-5.121.293-10.259-1.536-13.335-5.791-5.454-7.552-2.672-18.5.736-26.3a129.689,129.689,0,0,1,15.549-25.693c12.329-16.352,27.773-30.147,44.387-42.021,16.788-12,34.839-22.109,53.266-31.348,9.846-4.935,19.837-9.777,28.743-16.323A64.062,64.062,0,0,0,192,143c2.872-3.487,4.738-7.716,3.546-12.266a16.15,16.15,0,0,0-8.072-9.721c-4.551-2.451-9.972-2.628-14.984-1.89a77.6,77.6,0,0,0-16.132,4.632,137.612,137.612,0,0,0-13.676,6.111c-18.445,9.445-34.718,22.508-50.707,35.546-8.222,6.706-16.407,13.464-24.868,19.87-4.2,3.185-8.465,6.734-13.152,9.185-2.81,1.469-6.2,2.4-9.224.968a9.6,9.6,0,0,1-4.622-5.307c-2.082-5.42.309-11.052,3.353-15.582A76.667,76.667,0,0,1,53.8,162.484c7.537-7.318,16.175-13.383,24.972-19.077,8.724-5.647,17.684-10.939,26.222-16.872,3.316-2.3,7.565-5.786,7.54-10.245-.022-3.8-3.263-5.952-6.732-6.217-4.623-.354-9.108,1.656-13.3,3.317q-7.554,2.994-14.84,6.613a194.335,194.335,0,0,0-28.462,17.33q-6.552,4.8-12.687,10.146c-4.162,3.626-8.093,7.509-12.771,10.49-4.162,2.653-9.367,5.014-14.373,3.541-4.637-1.364-7.38-5.45-8.145-10.044-1.583-9.515,3.255-19.585,7.862-27.59A111.613,111.613,0,0,1,28.688,99.466a222.6,222.6,0,0,1,24.455-20q13.8-9.942,28.315-18.824A459.351,459.351,0,0,1,206.145,7.8q15.8-4.076,31.857-7c.45-.082.259-.767-.19-.686" transform="translate(0 -0.01)" fill="#fff"/>
            </g>
          </g>
          <path id="Trazado_873306" data-name="Trazado 873306" d="M75.316.05c-9.077,11.52-21.59,19.461-34.032,26.881-6.3,3.756-12.654,7.429-18.764,11.49-2.969,1.972-5.877,4.036-8.679,6.241A54.732,54.732,0,0,0,5.731,52.11c-4.144,4.9-7.9,12.176-4.258,18.393,3.733,6.376,12.145,6.946,18.545,5.148a80.62,80.62,0,0,0,11.739-4.777c3.824-1.761,7.624-3.57,11.424-5.381,7.7-3.67,15.4-7.354,23.275-10.651,15.212-6.372,31.35-11.379,48-11.251,10.816.083,23.983,2.342,31.094,11.387,9.319,11.854,1.589,27.7-4.41,39.1a165.865,165.865,0,0,0-10.566,23.794q-2.138,6.29-3.67,12.765a69.6,69.6,0,0,0-1.992,12.462c-.366,7.247,1.384,14.393,6.312,19.87a32.058,32.058,0,0,0,15.96,9.2c15.012,3.84,29.787-2.348,42.545-9.926,3.5-2.077,6.915-4.279,10.328-6.491.306-.2.021-.692-.287-.491-13.073,8.468-27.677,18.023-43.9,17.565-13.116-.37-27-7.645-29.841-21.378-1.761-8.5.447-17.475,2.711-25.664a139.668,139.668,0,0,1,9.432-24.724c3.68-7.433,8.093-14.587,10.531-22.569,1.764-5.775,2.516-12.154.5-17.971-3.543-10.236-14.357-14.933-24.293-16.6-14.573-2.448-29.722.273-43.621,4.783-15.7,5.1-30.453,12.635-45.35,19.651-3.879,1.827-7.757,3.707-11.737,5.3-3.871,1.554-8.054,2.784-12.267,2.361-3.6-.362-7.3-1.943-9.475-4.939A11.353,11.353,0,0,1,1.193,60.825c2.3-7.24,8.559-12.447,14.388-16.884A198.26,198.26,0,0,1,33.495,32.093C45.639,24.777,58.3,17.838,68.589,7.933A72.529,72.529,0,0,0,75.52.254c.112-.145-.089-.35-.2-.2" transform="translate(-9500.563 -13183.537)" fill="#9bb19f"/>
          <path id="Trazado_873307" data-name="Trazado 873307" d="M181.534.036,162.647,11.827l-9.445,5.9c-2.86,1.786-5.822,3.479-8.518,5.513-4.216,3.184-8.257,8.66-6,14.2,1.489,3.659,5.284,5.244,8.846,6.2,3.839,1.032,8.129,1.416,11.575,3.545a7.623,7.623,0,0,1,3.54,4.714c.74,3.179-.747,6.5-2.882,8.808-2.172,2.349-4.992,3.947-7.729,5.541q-4.556,2.651-9.073,5.367c-6.068,3.639-12.1,7.34-18.132,11.036-12.034,7.373-24.08,14.738-36.445,21.548a303.6,303.6,0,0,1-38.536,18.144c-5.738,2.178-11.576,4.064-17.381,6.048a112.417,112.417,0,0,1-16.437,4.642,35.043,35.043,0,0,1-8.081.62c-2.678-.149-5.643-.684-6.936-3.358-1.668-3.448,2.386-5.5,4.779-6.975,2.9-1.781,5.86-3.452,8.869-5.035,12.03-6.332,24.72-11.262,37.178-16.663,11.429-4.954,22.726-10.377,32.982-17.5a97.122,97.122,0,0,0,13.8-11.486,77.019,77.019,0,0,0,5.974-6.806c1.768-2.275,3.812-4.739,4.641-7.544a5.062,5.062,0,0,0-2.26-6.162,7.337,7.337,0,0,0-6.515.028c-2.71,1.265-4.732,3.63-6.81,5.7q-3.551,3.542-7.278,6.9A194.734,194.734,0,0,1,53.983,88.453c-5.83,3.39-12.2,6.512-19.037,6.982a22.941,22.941,0,0,1-5.117-.191c-1.529-.24-3.188-.734-3.973-2.2-1.4-2.615,1.255-5.685,3.087-7.29A48.792,48.792,0,0,1,36.15,81.02c2.458-1.469,4.953-2.878,7.454-4.276,4.948-2.764,9.932-5.476,14.727-8.506a78.527,78.527,0,0,0,13.1-10.065,50.477,50.477,0,0,0,5.347-6.127c1.423-1.932,3.573-4.634,1.8-7-1.636-2.188-4.587-2.075-6.864-1.119A43.586,43.586,0,0,0,64.2,48.459c-4.823,3.309-9.405,6.95-14.22,10.269a57.526,57.526,0,0,1-15.123,7.938,29.154,29.154,0,0,1-8.4,1.487c-1.436.012-3.124-.225-4.008-1.5-.942-1.362-.369-3.046.446-4.313,1.664-2.588,4.637-4.268,7.226-5.8,2.722-1.606,5.562-3,8.423-4.336,5.728-2.675,11.6-5.138,16.894-8.632,2.011-1.326,4.67-3.046,4.519-5.8-.124-2.284-2.186-4.058-4.264-4.655-2.82-.81-5.756.574-8.1,2.038-3.064,1.91-6,4.05-8.987,6.082q-8.931,6.085-17.862,12.169c-.318.217-.017.738.3.52L39.508,41.363c2.956-2.013,5.857-4.181,8.934-6,2.8-1.658,6.4-2.837,9.208-.539a4.065,4.065,0,0,1,1.661,3.716c-.291,1.666-1.741,2.817-3.042,3.733a63.568,63.568,0,0,1-8.035,4.7c-5.656,2.848-11.568,5.178-17.1,8.271a32.258,32.258,0,0,0-7.416,5.091c-1.531,1.566-3.163,4.1-2,6.314,1.195,2.27,4.132,2.24,6.336,2.039a33.833,33.833,0,0,0,7.989-1.752C46.931,63.163,55.6,55.062,64.983,48.688c1.2-.812,2.406-1.6,3.639-2.358a18.048,18.048,0,0,1,4.457-2.221,4.779,4.779,0,0,1,4.536.814c1.581,1.416.966,3.315-.036,4.873A51.553,51.553,0,0,1,66.155,61.971C57.184,69.107,46.732,74.048,36.9,79.836c-2.4,1.412-4.81,2.845-7.091,4.442a11.871,11.871,0,0,0-4.722,5.811c-1.961,6.445,7.7,6.318,11.516,5.818,6.561-.86,12.625-3.912,18.262-7.228A194.666,194.666,0,0,0,71.588,77.62Q79.5,71.791,86.818,65.2q3.727-3.358,7.278-6.9c2.2-2.2,4.386-4.822,7.4-5.9,2.414-.864,5.874-.372,7.024,2.223,1.38,3.12-1.3,6.537-3.031,8.93A79.353,79.353,0,0,1,93.031,76.96C83.708,85,72.9,91.155,61.813,96.418c-12.157,5.773-24.761,10.538-36.983,16.169A187.433,187.433,0,0,0,6.737,122c-1.388.833-2.8,1.658-4.123,2.6a6.4,6.4,0,0,0-2.291,2.515c-.968,2.209.376,4.574,2.23,5.821,1.916,1.287,4.609,1.381,6.845,1.376a41.087,41.087,0,0,0,7.868-.884A126.722,126.722,0,0,0,33.6,128.652c5.968-2.048,11.965-3.994,17.852-6.272q9.726-3.763,19.133-8.283c12.713-6.1,24.982-13.089,37.08-20.318,12.118-7.24,24.071-14.751,36.177-22.009q4.5-2.7,9.036-5.342a30.658,30.658,0,0,0,7.293-5.315c3.276-3.541,4.691-9.3.972-13.054-2.668-2.693-6.794-3.414-10.339-4.216-3.737-.845-8.262-1.7-10.687-4.986a8.66,8.66,0,0,1-.8-8.216,16.569,16.569,0,0,1,6.128-7.309c2.757-2.013,5.74-3.736,8.63-5.547l9.435-5.913L181.764.429c.248-.156.02-.55-.23-.394" transform="translate(-10912.271 -13207.194)" fill="#c1ddc7"/>
          <g id="Grupo_1099169" data-name="Grupo 1099169" transform="translate(-9583.162 -13130)">
            <path id="Trazado_873308" data-name="Trazado 873308" d="M145.751.065c-3.277,10.131-9.745,18.861-17.625,25.91-8.285,7.412-17.983,12.962-28.059,17.549-11.577,5.271-23.623,9.414-35.276,14.5-2.92,1.275-5.813,2.611-8.665,4.034a73.44,73.44,0,0,0-8.189,4.584,51.72,51.72,0,0,0-6.971,5.938A34.488,34.488,0,0,1,34.059,77.9C24.64,83.23,13.452,83.8,3.49,87.706q-1.746.684-3.433,1.51c.043.057.087.112.129.168A93.9,93.9,0,0,1,35.153,70.84a98.456,98.456,0,0,1,10.824-2.41c.17-.029.1-.284-.072-.259A93.112,93.112,0,0,0,.036,89.233c-.1.082.026.219.129.168,9.751-4.834,20.948-5.307,30.851-9.713a32.738,32.738,0,0,0,6.707-3.935c2.474-1.907,4.545-4.26,6.9-6.3A42.543,42.543,0,0,1,52.593,64.2c2.841-1.516,5.744-2.914,8.673-4.247,11.7-5.321,23.878-9.5,35.655-14.651,10.293-4.5,20.257-9.82,28.953-17,7.984-6.59,14.982-14.805,18.786-24.533q.706-1.806,1.272-3.658c.036-.117-.143-.165-.181-.05" transform="translate(89.412 0) rotate(90)" fill="#9bb19f"/>
            <path id="Trazado_873309" data-name="Trazado 873309" d="M.076,19.953a127.8,127.8,0,0,1,17.48-7.907c5.8-2.2,11.661-4.263,17.313-6.82A80.3,80.3,0,0,0,44.257.25c.144-.09.012-.319-.134-.229C33.347,6.647,21.019,10,9.508,15.047A79.614,79.614,0,0,0,.025,19.865a.051.051,0,0,0,.051.089" transform="translate(21.552 2.087) rotate(90)" fill="#9bb19f"/>
            <path id="Trazado_873310" data-name="Trazado 873310" d="M19.214.01a26.193,26.193,0,0,0-7.838,7.018c-2.365,3.2-3.475,7.164-6.206,10.1A40.005,40.005,0,0,1,.062,21.441c-.141.108-.02.343.143.247,3.373-1.983,6.84-3.892,9.661-6.649a17.572,17.572,0,0,0,3.349-4.422c.815-1.57,1.349-3.265,2-4.9A10.219,10.219,0,0,1,18.871.581L18.733.4c-2.992,2.636-4.726,6.269-6.8,9.6A24.554,24.554,0,0,1,2.822,18.85c-.1.056-.012.209.091.155a23.558,23.558,0,0,0,8.865-8.35C13.992,7.183,15.75,3.333,18.893.562c.1-.085-.029-.248-.138-.179-2.969,1.9-3.8,5.516-5.065,8.571A20.747,20.747,0,0,1,5.92,17.915,60.619,60.619,0,0,1,.062,21.441c.047.082.1.165.143.247,3.052-2.2,5.932-4.586,7.715-7.963.923-1.749,1.7-3.566,2.765-5.238a25.943,25.943,0,0,1,3.549-4.405A26.538,26.538,0,0,1,19.285.131.07.07,0,0,0,19.214.01" transform="translate(34.564 52.943) rotate(90)" fill="#9bb19f"/>
            <path id="Trazado_873311" data-name="Trazado 873311" d="M83.223,9.783a39.806,39.806,0,0,1-15.538,3.125,119.184,119.184,0,0,1-16.115-.947Q43.044,11,34.629,9.268c-5.544-1.141-11-2.592-16.44-4.139C12.278,3.45,6.3,1.834.124,1.572l.033.246C10.524.4,21.2-.629,31.556,1.416c5.152,1.018,9.953,3.013,14.829,4.9a95.567,95.567,0,0,0,15.291,4.343c2.831.583,5.676,1.224,8.547,1.58a24.006,24.006,0,0,0,8.821-.5c.167-.042.092-.273-.068-.249-9.911,1.423-19.934.092-29.7-1.71S29.8,5.928,20.061,4.048C14.7,3.014,9.3,2.1,3.875,1.485c-.107-.012-.106.155,0,.168,9.962,1.182,19.8,3.367,29.634,5.3,9.667,1.9,19.358,4.1,29.184,5a72.155,72.155,0,0,0,16.35-.211c-.022-.083-.045-.167-.068-.249a23.728,23.728,0,0,1-8.106.535c-2.728-.289-5.424-.916-8.108-1.47a101.6,101.6,0,0,1-15.338-4.2C42.53,4.515,37.741,2.428,32.61,1.324A66.293,66.293,0,0,0,17.361.017,150.956,150.956,0,0,0,.09,1.577c-.144.019-.1.24.034.246A73.1,73.1,0,0,1,16.776,5.011c5.476,1.547,10.943,3.08,16.51,4.272q8.3,1.777,16.743,2.785A130.816,130.816,0,0,0,66.5,13.2,40.88,40.88,0,0,0,83.319,9.946c.11-.05.014-.212-.1-.163" transform="translate(55.489 16.679) rotate(90)" fill="#9bb19f"/>
            <path id="Trazado_873312" data-name="Trazado 873312" d="M33.905.012A49.052,49.052,0,0,0,26.766,6.8a37.016,37.016,0,0,0-4.595,7.826,50.315,50.315,0,0,1-4.309,8.056c-2.061,2.886-4.913,4.983-7.718,7.091Q5.161,33.521.063,37.11l.166.166q5.1-7.027,10.263-14a85.321,85.321,0,0,1,10.988-12.4C23.754,8.8,26.125,6.853,28.5,4.9c.094-.077-.033-.244-.132-.17-4.026,3.024-6.886,7.22-9.688,11.335A99.015,99.015,0,0,1,8.5,28.906a85.8,85.8,0,0,1-6.843,6.4c-.131.109.058.3.188.187A84.23,84.23,0,0,0,13.313,23.842c3.237-4.016,5.859-8.451,8.961-12.562a31.194,31.194,0,0,1,6.2-6.36l-.131-.17a102.237,102.237,0,0,0-12.326,11.2c-3.636,4.1-6.772,8.619-10,13.037q-2.99,4.091-6,8.17c-.072.1.07.234.166.166q4.619-3.24,9.146-6.609a45.241,45.241,0,0,0,7.68-6.491c4.016-4.7,5.445-10.941,8.959-15.958,2.207-3.152,5.153-5.638,8.007-8.176.049-.045-.022-.113-.073-.073" transform="translate(66.468 97.798) rotate(90)" fill="#9bb19f"/>
          </g>
          <g id="Grupo_1099170" data-name="Grupo 1099170" transform="translate(-9848.242 -13105.885)" clip-path="url(#clip-path-3)">
            <path id="Trazado_873313" data-name="Trazado 873313" d="M13.107.678A16.671,16.671,0,0,0,3.585.71,5.461,5.461,0,0,0,.68,2.457c-1.4,1.886-.4,4.573.866,6.55,3.679,5.744,9.2,10.02,14.609,14.177,2.738,2.1,6.014,4.332,9.362,3.484C29,25.788,30.872,21.85,31,18.26c.23-6.553-.6-8.479-5.218-11.459A54.494,54.494,0,0,0,13.107.678" transform="translate(0 0)" fill="#c1ddc7"/>
            <path id="Trazado_873314" data-name="Trazado 873314" d="M67.607,16.794c-.2-1.956-1.935-3.695-5.983-4.482-3.047-.593-6.644.437-8.074,3.192a8.806,8.806,0,0,0-.725,4.546c.1,1.921.652,4.1,2.378,4.955a6.274,6.274,0,0,0,4.082.034c4.628-1.009,8.664-4.939,8.323-8.245" transform="translate(-13.435 -3.091)" fill="#c1ddc7"/>
            <path id="Trazado_873315" data-name="Trazado 873315" d="M52.047,46.624c-1.521-2.1-3.732-4.232-6.3-3.87s-4.173,3.184-4.167,5.777,1.18,5.016,2.185,7.406a7.157,7.157,0,0,0,1.69,2.8,5.271,5.271,0,0,0,3.862.961c2.314-.179,6.054-1.563,6.79-4.109.775-2.68-2.53-6.847-4.058-8.96" transform="translate(-10.579 -10.868)" fill="#c1ddc7"/>
          </g>
          <g id="Grupo_1099171" data-name="Grupo 1099171" transform="translate(-10537.06 -13108.455)" clip-path="url(#clip-path-4)">
            <path id="Trazado_873316" data-name="Trazado 873316" d="M30.541,8.54a14.542,14.542,0,0,0-4.429-.91,5.116,5.116,0,0,0-4.034,1.725,5.062,5.062,0,0,0-.716,4.31,13.291,13.291,0,0,0,2,4.033,77.131,77.131,0,0,0,5.028,6.782,9.5,9.5,0,0,0,3.559,3.011,10.123,10.123,0,0,0,4.2.413c2.054-.088,4.307-.257,5.784-1.687a7.339,7.339,0,0,0,1.765-4.92c.181-2.873.327-6.872-1.916-8.842-2.337-2.051-8.3-2.974-11.236-3.917" transform="translate(-1.875 -0.676)" fill="#f2f8f4"/>
            <path id="Trazado_873317" data-name="Trazado 873317" d="M11.655,28.457a2.443,2.443,0,0,0-.691,1.509,2.63,2.63,0,0,0,1.259,1.871A17.4,17.4,0,0,0,19,35.013c1.224.275,2.667.361,3.574-.508.932-.892.879-2.4.53-3.644-1.743-6.212-7.223-7.479-11.445-2.4" transform="translate(-0.971 -2.242)" fill="#f2f8f4"/>
            <path id="Trazado_873318" data-name="Trazado 873318" d="M10.68,14.923a5.023,5.023,0,0,1-3.552.891,2.475,2.475,0,0,1-1.034-.168,2.516,2.516,0,0,1-.917-.947L1.495,9.224C.561,7.836-.413,6.151.181,4.587A4.115,4.115,0,0,1,1.66,2.834,18.4,18.4,0,0,1,5.64.782C7.069.186,8.749-.4,10.1.362c3.508,1.981,3.328,12.042.582,14.561" transform="translate(0 0)" fill="#f2f8f4"/>
          </g>
          <g id="Grupo_1099172" data-name="Grupo 1099172" transform="translate(-9992.486 -13121.178)">
            <path id="Trazado_873319" data-name="Trazado 873319" d="M48.978,221.016C39.5,211.956,33.1,200.229,29.272,187.77c-4.01-13.051-5.319-26.741-5.234-40.348.1-16.343,1.993-32.6,2.788-48.908a195.9,195.9,0,0,0,.012-24.395,51.273,51.273,0,0,0-2.121-11.394,82.75,82.75,0,0,1-3.171-11.177C19.11,36.641,25.538,22.1,26.793,7.4q.231-2.7.216-5.415l-.287.039A121.124,121.124,0,0,1,28.707,52.87,128.158,128.158,0,0,1,25.429,66.9a.182.182,0,0,0,.351.1,119.043,119.043,0,0,0,4.05-50.719A119.438,119.438,0,0,0,27,1.948a.147.147,0,0,0-.287.039c.154,15.031-6.476,29.265-5.988,44.307A40.722,40.722,0,0,0,22.5,56.884c1.176,3.863,2.64,7.616,3.324,11.612,1.391,8.133,1.065,16.656.763,24.869-.607,16.538-2.559,33-2.944,49.549-.322,13.838.588,27.755,4.152,41.177,3.26,12.276,8.785,24.275,17.519,33.639q1.678,1.8,3.486,3.468c.121.112.3-.067.182-.182" transform="translate(-5.804 -1.845)" fill="#748578"/>
            <path id="Trazado_873320" data-name="Trazado 873320" d="M29.052,6.422a163.273,163.273,0,0,1-.576,24.357c-.7,8.082-1.609,16.164-1.808,24.281A103.028,103.028,0,0,0,27.2,68.733c.026.228.386.232.362,0a136.8,136.8,0,0,1,.13-24.323c.612-8.1,1.5-16.172,1.794-24.29a101.516,101.516,0,0,0-.29-13.7c-.009-.088-.145-.09-.139,0" transform="translate(-7.41 -3.066)" fill="#748578"/>
            <path id="Trazado_873321" data-name="Trazado 873321" d="M23.312,130.417a33.6,33.6,0,0,0-4.061-13.6,44.448,44.448,0,0,0-4.1-5.926,25.089,25.089,0,0,1-3.926-6.569,55.5,55.5,0,0,1-2.079-8.179c-.045-.212-.4-.169-.383.052.424,5.083.7,10.238,2.366,15.1a22.4,22.4,0,0,0,3.434,6.507c1.424,1.833,3.132,3.418,4.677,5.145,1.714,1.918,3.287,4.1,3.585,6.728l.3-.042c-1.052-3.8-3.246-7.1-5.419-10.344-2.334-3.483-4.569-6.978-5.806-11.022a30.486,30.486,0,0,1-1.292-7.428c-.008-.157-.251-.158-.245,0a28.985,28.985,0,0,0,3.316,12.51c1.851,3.529,4.334,6.669,6.358,10.094a26.114,26.114,0,0,1,2.79,6.272c.045.162.325.137.3-.041-.518-4.565-4.367-7.588-7.216-10.81a22.188,22.188,0,0,1-3.99-6.433,34.221,34.221,0,0,1-1.955-7.411A76.393,76.393,0,0,1,9.155,96.2l-.382.052a48.726,48.726,0,0,0,1.735,7.272,22.437,22.437,0,0,0,3.441,6.446,73.672,73.672,0,0,1,4.369,5.949,33.467,33.467,0,0,1,3.044,6.456,33.922,33.922,0,0,1,1.758,8.047c.011.121.2.123.191,0" transform="translate(-2.572 -27.344)" fill="#748578"/>
            <path id="Trazado_873322" data-name="Trazado 873322" d="M25.083,161.72c.164-7.124,2.374-13.981,5.345-20.4a161.665,161.665,0,0,1,10.539-18.672q5.807-9.131,12.412-17.719c4.4-5.723,9.113-11.164,13.9-16.563,4.547-5.127,9.063-10.355,12.57-16.269q.657-1.112,1.267-2.253l-.314-.132c-2.014,6.225-4.162,12.416-6.771,18.42a92.609,92.609,0,0,1-9.3,16.858,66.563,66.563,0,0,1-6.353,7.646c-2.41,2.494-4.984,4.822-7.526,7.179-2.585,2.4-5.117,4.84-7.467,7.468s-4.566,5.395-6.72,8.2c-2.164,2.818-4.361,5.633-6.373,8.561a32.729,32.729,0,0,0-4.523,9.183c-.247.832-.454,1.674-.628,2.524a.177.177,0,0,0,.341.093,85.816,85.816,0,0,1,7.4-16.6,169.067,169.067,0,0,1,9.966-15.228c3.729-5.168,7.6-10.234,11.428-15.329q6.087-8.1,12.163-16.21c3.936-5.274,7.783-10.621,11.356-16.15.447-.691.886-1.386,1.326-2.082.079-.124-.118-.238-.2-.114-3.535,5.593-7.444,10.934-11.378,16.252-4.018,5.433-8.09,10.826-12.141,16.234-3.871,5.167-7.767,10.317-11.575,15.531-3.6,4.925-7.083,9.943-10.189,15.2a93.462,93.462,0,0,0-7.77,16.259q-.38,1.069-.728,2.148l.341.093A30.37,30.37,0,0,1,29.41,146.1c1.872-3.014,4.112-5.8,6.264-8.615,2.176-2.845,4.386-5.668,6.726-8.381a103.662,103.662,0,0,1,7.346-7.641c2.542-2.4,5.15-4.732,7.628-7.2a69.48,69.48,0,0,0,6.467-7.372,86.876,86.876,0,0,0,9.68-16.707,185.5,185.5,0,0,0,6.856-18.07q.381-1.154.756-2.311a.172.172,0,0,0-.312-.132c-3.3,6.184-7.786,11.613-12.4,16.852-4.743,5.384-9.515,10.72-13.95,16.365q-6.7,8.528-12.608,17.641A181.34,181.34,0,0,0,31,139.269c-3.047,6.227-5.462,12.887-6.041,19.841q-.108,1.3-.131,2.61a.128.128,0,0,0,.257,0" transform="translate(-6.921 -20.19)" fill="#748578"/>
            <path id="Trazado_873323" data-name="Trazado 873323" d="M24.725,240.12a61.656,61.656,0,0,0-4.056-12.456,49.424,49.424,0,0,0-6.582-9.647,60.054,60.054,0,0,1-6.853-9.5c-2.093-3.926-2.9-8.309-3.758-12.63q-1.565-7.9-2.883-15.855l-.3.127c3.475,6.5,6.978,13,10.4,19.529,1.65,3.153,3.252,6.334,4.668,9.6A90.041,90.041,0,0,1,19,219.413c1.149,3.859,2.106,7.77,3.058,11.682.045.186.321.106.284-.079-1.284-6.5-4.676-12.27-7.948-17.938a124.819,124.819,0,0,1-9.052-18.8A109.668,109.668,0,0,1,1.8,182.929a.181.181,0,0,0-.349.1,109.1,109.1,0,0,0,7.021,19.657c1.474,3.133,3.128,6.173,4.87,9.165,1.669,2.864,3.385,5.7,4.894,8.658a39.308,39.308,0,0,1,3.818,10.59l.284-.079c-1.66-7-3.344-14.018-6.138-20.671-2.772-6.6-6.318-12.859-9.687-19.168q-2.983-5.584-5.94-11.182c-.094-.176-.331-.046-.3.128Q1.44,187.227,2.8,194.3c.838,4.346,1.533,8.847,3.37,12.908,3.221,7.123,9.506,12.207,13.328,18.954,2.471,4.361,3.722,9.217,5.092,14a.07.07,0,0,0,.135-.037" transform="translate(-0.272 -50.066)" fill="#748578"/>
          </g>
        </g>
      </g>
    </g>
  </g>
</svg>
