<svg xmlns="http://www.w3.org/2000/svg" xmlns:xlink="http://www.w3.org/1999/xlink" width="1320" height="520" viewBox="0 0 1320 520">
  <defs>
    <linearGradient id="linear-gradient" x1="0.28" y1="1" x2="1.235" y2="1" gradientUnits="objectBoundingBox">
      <stop offset="0" stop-color="#e6f1e8"/>
      <stop offset="1" stop-color="#fef6ed"/>
    </linearGradient>
    <linearGradient id="linear-gradient-2" x1="0.005" y1="1" x2="1" y2="1" gradientUnits="objectBoundingBox">
      <stop offset="0" stop-color="#e6f1e8"/>
      <stop offset="1" stop-color="#c8e3cd"/>
    </linearGradient>
    <clipPath id="clip-path">
      <path id="Rectangle_652" data-name="Rectangle 652" d="M20.787,0H1299.213C1310.693,0,1320,8.391,1320,18.742V501.258c0,10.351-9.307,18.742-20.787,18.742H20.787C9.307,520,0,511.609,0,501.258V18.742C0,8.391,9.307,0,20.787,0Z" transform="translate(143.333 70)" fill="url(#linear-gradient)"/>
    </clipPath>
    <radialGradient id="radial-gradient" cx="0" cy="0.924" r="1.343" gradientTransform="matrix(0.436, -0.9, 0.808, 0.391, -0.747, 0.563)" gradientUnits="objectBoundingBox">
      <stop offset="0" stop-color="#f9a545"/>
      <stop offset="1" stop-color="#feedda"/>
    </radialGradient>
    <clipPath id="clip-path-2">
      <rect id="Rectángulo_401222" data-name="Rectángulo 401222" width="261.4" height="348.698" fill="none"/>
    </clipPath>
    <clipPath id="clip-path-3">
      <rect id="Rectángulo_401227" data-name="Rectángulo 401227" width="72.688" height="65.525" transform="translate(0 0)" fill="#c1ddc7"/>
    </clipPath>
    <clipPath id="clip-path-4">
      <rect id="Rectángulo_401228" data-name="Rectángulo 401228" width="45.981" height="36.164" transform="translate(0 0)" fill="#f2f8f4"/>
    </clipPath>
  </defs>
  <g id="Grupo_1102921" data-name="Grupo 1102921" transform="translate(-143.333 -70)">
    <path id="Rectangle_652-2" data-name="Rectangle 652" d="M20.787,0H1299.213C1310.693,0,1320,8.391,1320,18.742V501.258c0,10.351-9.307,18.742-20.787,18.742H20.787C9.307,520,0,511.609,0,501.258V18.742C0,8.391,9.307,0,20.787,0Z" transform="translate(143.333 70)" fill="url(#linear-gradient-2)"/>
    <g id="Enmascarar_grupo_1098669" data-name="Enmascarar grupo 1098669" clip-path="url(#clip-path)">
      <g id="Grupo_1099159" data-name="Grupo 1099159">
        <g id="Grupo_1099156" data-name="Grupo 1099156" transform="translate(12542.333 12616.391)">
          <path id="Trazado_873151" data-name="Trazado 873151" d="M327.232,107.726a1.708,1.708,0,0,0,0-3.415,1.708,1.708,0,0,0,0,3.415" transform="translate(-12023.739 -12224.045)" fill="#9bb19f"/>
          <path id="Trazado_873152" data-name="Trazado 873152" d="M306.006,100.136a1.073,1.073,0,0,0,0-2.145,1.073,1.073,0,0,0,0,2.145" transform="translate(-12027.542 -12225.211)" fill="#9bb19f"/>
          <path id="Trazado_873153" data-name="Trazado 873153" d="M286.911,123.409a1.323,1.323,0,0,0,0-2.644,1.323,1.323,0,0,0,0,2.644" transform="translate(-12031.108 -12221.01)" fill="#9bb19f"/>
          <path id="Trazado_873154" data-name="Trazado 873154" d="M272.811,116.534a1.354,1.354,0,0,0,0-2.707,1.354,1.354,0,0,0,0,2.707" transform="translate(-12033.716 -12222.29)" fill="#9bb19f"/>
          <path id="Trazado_873155" data-name="Trazado 873155" d="M250.272,106.937l-2.08-.025a1.5,1.5,0,0,0-1.03.426,1.625,1.625,0,0,0-.426,1.03,1.466,1.466,0,0,0,.426,1.031,1.482,1.482,0,0,0,1.03.428l2.08-.058a1.482,1.482,0,0,0,1-.415,1.417,1.417,0,0,0,0-2,1.485,1.485,0,0,0-1-.415" transform="translate(-12038.285 -12223.565)" fill="#9bb19f"/>
          <path id="Trazado_873156" data-name="Trazado 873156" d="M228.772,102.657a1.2,1.2,0,0,0,0-2.394,1.2,1.2,0,0,0,0,2.394" transform="translate(-12041.812 -12224.792)" fill="#9bb19f"/>
          <path id="Trazado_873157" data-name="Trazado 873157" d="M206.083,110.5a1.75,1.75,0,0,0,0-3.5,1.75,1.75,0,0,0,0,3.5" transform="translate(-12046.096 -12223.548)" fill="#9bb19f"/>
          <path id="Trazado_873158" data-name="Trazado 873158" d="M162.246,122.895a1.531,1.531,0,0,0,0-3.061,1.531,1.531,0,0,0,0,3.061" transform="translate(-12054.144 -12221.182)" fill="#9bb19f"/>
          <path id="Trazado_873159" data-name="Trazado 873159" d="M133.947,103.442a1.219,1.219,0,0,0,0-2.436,1.219,1.219,0,0,0,0,2.436" transform="translate(-12059.309 -12224.654)" fill="#9bb19f"/>
          <path id="Trazado_873160" data-name="Trazado 873160" d="M123.486,89.661l-2.08,0a.219.219,0,0,0,0,.437l2.08-.038a.2.2,0,0,0,0-.4" transform="translate(-12061.444 -12226.748)" fill="#9bb19f"/>
          <path id="Trazado_873161" data-name="Trazado 873161" d="M100.4,87.484a.854.854,0,0,0,0-1.707.854.854,0,0,0,0,1.707" transform="translate(-12065.433 -12227.464)" fill="#9bb19f"/>
          <path id="Trazado_873162" data-name="Trazado 873162" d="M70.44,57.246a1.833,1.833,0,0,0,0-3.665,1.833,1.833,0,0,0,0,3.665" transform="translate(-12071.134 -12233.403)" fill="#9bb19f"/>
          <path id="Trazado_873163" data-name="Trazado 873163" d="M21.727,34.914l-4.16.024a1.54,1.54,0,1,0,0,3.081l4.16-.044a1.53,1.53,0,1,0,0-3.061" transform="translate(-12080.846 -12236.848)" fill="#9bb19f"/>
          <path id="Trazado_873164" data-name="Trazado 873164" d="M566.149,72.54l-2.08.037a1.756,1.756,0,0,0-1.193.5,1.246,1.246,0,0,0-.348.542,1.272,1.272,0,0,0-.146.649,1.709,1.709,0,0,0,.494,1.193,1.757,1.757,0,0,0,1.193.494l2.08,0a1.763,1.763,0,0,0,1.207-.5,1.9,1.9,0,0,0,.5-1.208,1.723,1.723,0,0,0-.5-1.207,1.75,1.75,0,0,0-1.207-.5" transform="translate(-11980.055 -12229.906)" fill="#9bb19f"/>
          <path id="Trazado_873165" data-name="Trazado 873165" d="M529.09,63.961q.02,1.039.038,2.08a1.54,1.54,0,0,0,.432,1.046,1.122,1.122,0,0,0,.476.306,1.11,1.11,0,0,0,.57.127,1.49,1.49,0,0,0,1.045-.432,1.539,1.539,0,0,0,.433-1.046q0-1.039,0-2.08a1.543,1.543,0,0,0-.438-1.06,1.67,1.67,0,0,0-1.06-.439,1.518,1.518,0,0,0-1.06.439,1.537,1.537,0,0,0-.439,1.06" transform="translate(-11986.196 -12231.766)" fill="#9bb19f"/>
          <path id="Trazado_873166" data-name="Trazado 873166" d="M515,95.344a1.417,1.417,0,0,0,0-2.832,1.417,1.417,0,0,0,0,2.832" transform="translate(-11989.048 -12226.222)" fill="#9bb19f"/>
          <path id="Trazado_873167" data-name="Trazado 873167" d="M483.451,107.565a1.135,1.135,0,0,0,0-2.269,1.135,1.135,0,0,0,0,2.269" transform="translate(-11994.818 -12223.863)" fill="#9bb19f"/>
          <path id="Trazado_873168" data-name="Trazado 873168" d="M451.715,88.719a1.323,1.323,0,0,0,0-2.644,1.323,1.323,0,0,0,0,2.644" transform="translate(-12000.706 -12227.409)" fill="#9bb19f"/>
          <path id="Trazado_873169" data-name="Trazado 873169" d="M434.239,99.4a1.323,1.323,0,0,0,0-2.644,1.323,1.323,0,0,0,0,2.644" transform="translate(-12003.93 -12225.439)" fill="#9bb19f"/>
          <path id="Trazado_873170" data-name="Trazado 873170" d="M423.837,115.345a1.375,1.375,0,0,0,0-2.748,1.375,1.375,0,0,0,0,2.748" transform="translate(-12005.858 -12222.517)" fill="#9bb19f"/>
          <path id="Trazado_873171" data-name="Trazado 873171" d="M369.575,138.563a1.333,1.333,0,0,0,0-2.665,1.333,1.333,0,0,0,0,2.665" transform="translate(-12015.861 -12218.218)" fill="#9bb19f"/>
          <path id="Trazado_873172" data-name="Trazado 873172" d="M362.143,87.705a1.344,1.344,0,0,0,0-2.686,1.344,1.344,0,0,0,0,2.686" transform="translate(-12017.233 -12227.604)" fill="#9bb19f"/>
          <path id="Trazado_873173" data-name="Trazado 873173" d="M353.29,80.62a1.229,1.229,0,0,0,0-2.457,1.229,1.229,0,0,0,0,2.457" transform="translate(-12018.847 -12228.869)" fill="#9bb19f"/>
          <path id="Trazado_873174" data-name="Trazado 873174" d="M260.206,71.395a1.719,1.719,0,0,0,0-3.435,1.719,1.719,0,0,0,0,3.435" transform="translate(-12036.105 -12230.751)" fill="#9bb19f"/>
          <path id="Trazado_873175" data-name="Trazado 873175" d="M225.016,71.148a1.26,1.26,0,0,0,0-2.519,1.26,1.26,0,0,0,0,2.519" transform="translate(-12042.516 -12230.628)" fill="#9bb19f"/>
          <path id="Trazado_873176" data-name="Trazado 873176" d="M160.09,75.35a1.406,1.406,0,0,0,0-2.811,1.406,1.406,0,0,0,0,2.811" transform="translate(-12054.52 -12229.906)" fill="#9bb19f"/>
          <path id="Trazado_873177" data-name="Trazado 873177" d="M149.485,68.314a1.323,1.323,0,0,0,0-2.644,1.323,1.323,0,0,0,0,2.644" transform="translate(-12056.461 -12231.174)" fill="#9bb19f"/>
          <path id="Trazado_873178" data-name="Trazado 873178" d="M213.252,141.225a1.031,1.031,0,0,0,0-2.061,1.031,1.031,0,0,0,0,2.061" transform="translate(-12044.646 -12217.615)" fill="#9bb19f"/>
          <path id="Trazado_873179" data-name="Trazado 873179" d="M348.46,131.816a1.427,1.427,0,0,0,0-2.852,1.427,1.427,0,0,0,0,2.852" transform="translate(-12019.773 -12219.497)" fill="#9bb19f"/>
          <path id="Trazado_873180" data-name="Trazado 873180" d="M298.79,70.7a1.385,1.385,0,0,0,0-2.769,1.385,1.385,0,0,0,0,2.769" transform="translate(-12028.929 -12230.756)" fill="#9bb19f"/>
          <path id="Trazado_873181" data-name="Trazado 873181" d="M411.129,67.766a1.146,1.146,0,0,0,0-2.291,1.146,1.146,0,0,0,0,2.291" transform="translate(-12008.162 -12231.209)" fill="#9bb19f"/>
          <path id="Trazado_873182" data-name="Trazado 873182" d="M444.56,67.944l2.08-.027a1.575,1.575,0,0,0,1.076-.445,1.688,1.688,0,0,0,.444-1.074,1.533,1.533,0,0,0-.444-1.074,1.58,1.58,0,0,0-1.076-.445l-2.08.006a1.581,1.581,0,0,0-1.083.448,1.7,1.7,0,0,0-.448,1.083,1.552,1.552,0,0,0,.448,1.083,1.576,1.576,0,0,0,1.083.448" transform="translate(-12002.073 -12231.319)" fill="#9bb19f"/>
          <path id="Trazado_873183" data-name="Trazado 873183" d="M483.17,69.16a1.333,1.333,0,0,0,0-2.665,1.333,1.333,0,0,0,0,2.665" transform="translate(-11994.905 -12231.021)" fill="#9bb19f"/>
          <path id="Trazado_873184" data-name="Trazado 873184" d="M467.767,125.061l4.16-.137a.864.864,0,1,0,0-1.728l-4.16-.071a.968.968,0,0,0,0,1.937" transform="translate(-11997.688 -12220.574)" fill="#9bb19f"/>
          <path id="Trazado_873185" data-name="Trazado 873185" d="M550.2,107.173a1.26,1.26,0,0,0,0-2.519,1.26,1.26,0,0,0,0,2.519" transform="translate(-11982.526 -12223.981)" fill="#9bb19f"/>
          <path id="Trazado_873186" data-name="Trazado 873186" d="M127.088,121.24a1.375,1.375,0,0,0,0-2.748,1.375,1.375,0,0,0,0,2.748" transform="translate(-12060.602 -12221.429)" fill="#9bb19f"/>
          <path id="Trazado_873187" data-name="Trazado 873187" d="M79.432,101.642a.8.8,0,0,0,0-1.6.8.8,0,0,0,0,1.6" transform="translate(-12069.291 -12224.833)" fill="#9bb19f"/>
          <path id="Trazado_873188" data-name="Trazado 873188" d="M42.38,70.942a1.333,1.333,0,0,0,0-2.665,1.333,1.333,0,0,0,0,2.665" transform="translate(-12076.221 -12230.692)" fill="#9bb19f"/>
          <path id="Trazado_873189" data-name="Trazado 873189" d="M41.546,26.041l.014-2.08a1.34,1.34,0,0,0-.381-.92,1.3,1.3,0,0,0-2.221.92q.023,1.039.047,2.08a1.325,1.325,0,0,0,.373.9,1.27,1.27,0,0,0,1.8,0,1.327,1.327,0,0,0,.372-.9" transform="translate(-12076.615 -12239.108)" fill="#9bb19f"/>
          <path id="Trazado_873190" data-name="Trazado 873190" d="M1.469,2.936,3.549,2.9a1.5,1.5,0,0,0,1.023-.423A1.475,1.475,0,0,0,5,1.452,1.461,1.461,0,0,0,4.572.429,1.507,1.507,0,0,0,3.549,0L1.469,0A1.518,1.518,0,0,0,.431.43,1.111,1.111,0,0,0,.127.9,1.107,1.107,0,0,0,0,1.469a1.478,1.478,0,0,0,.43,1.038,1.5,1.5,0,0,0,1.038.43" transform="translate(-12083.802 -12243.288)" fill="#9bb19f"/>
          <path id="Trazado_873191" data-name="Trazado 873191" d="M109.2,62.088q0,1.039.006,2.08a1.729,1.729,0,0,0,.492,1.186,1.868,1.868,0,0,0,1.184.49,1.691,1.691,0,0,0,1.186-.49,1.726,1.726,0,0,0,.49-1.186q-.012-1.039-.026-2.08a1.73,1.73,0,0,0-.488-1.177,1.853,1.853,0,0,0-1.179-.488,1.682,1.682,0,0,0-1.177.488,1.725,1.725,0,0,0-.488,1.177" transform="translate(-12063.656 -12232.142)" fill="#9bb19f"/>
          <path id="Trazado_873192" data-name="Trazado 873192" d="M198.664,52.828l.011-1.272c.019-2.331-3.6-2.333-3.623,0l-.011,1.272c-.019,2.359,3.723,2.361,3.665,0-.011-.424-.02-.848-.031-1.272-.057-2.327-3.68-2.336-3.623,0l.032,1.272a1.791,1.791,0,0,0,3.581,0" transform="translate(-12047.821 -12234.1)" fill="#9bb19f"/>
        </g>
        <path id="Trazado_873137" data-name="Trazado 873137" d="M6.117,47.982c-5.108,7.037-7.84,16.389-4.924,24.582,5.631,15.822,28.963,21.02,32.048,37.527,2.025,10.831-5.936,20.756-13.485,28.783S3.95,156.39,5.233,167.335c.891,7.6,6.554,14.08,13.427,17.449s14.8,4,22.43,3.458a79.241,79.241,0,0,0,27-6.837c15.4-6.977,29.093-19.045,45.921-20.707,6.548-.647,13.924.773,17.9,6.021,4.244,5.605,3.241,13.476,5.243,20.215,4.065,13.673,20.861,20.575,34.743,17.3s24.761-14.271,32.253-26.41c16.8-27.226,19.793-60.66,19.54-92.654-.188-23.692-3.1-51.288-20.138-69.543C186.331-2.829,148.636-.7,126.02,1.236,103.485,3.16,80.9,7.014,59.592,14.788,41.52,21.384,17.67,32.067,6.117,47.982" transform="translate(1284.553 22.757)" fill="url(#radial-gradient)"/>
        <path id="Trazado_873130" data-name="Trazado 873130" d="M637.622,66.641a17.065,17.065,0,0,0,1.6-8.9c-.956-8.979-10.316-15.155-19.329-15.708s-17.7,3.087-25.99,6.655L505.325,86.8c-10.56,4.544-35.249,15.245-46.438,6.544-12.424-9.662-1.663-29.749,7.412-38.431,12.085-11.561,28.434-18.89,37.564-32.9,2.479-3.805,4.386-8.388,3.378-12.816-2.674-11.741-19.813-10.418-31.03-6.034A912.935,912.935,0,0,0,361.635,57.4C343.345,67.666,324.78,78.789,304,81.625c-3.713.506-7.811.648-10.855-1.539-6.946-4.99-2.457-15.974,3.038-22.528S308,41.827,303.033,34.868c-4.828-6.757-15.307-4.14-22.877-.726-49.92,22.521-99.19,49.586-143.019,82.565C96.552,147.245,45.192,164.836,0,188.768c39.862-13.578,83.464-11.468,124.891-3.909s81.76,20.358,123.189,27.9c66.068,12.035,136.8,11.582,202.04-5.268,36.784-9.5,64.968-33.447,93.644-57.04,28.4-23.369,59.066-45.068,84.837-71.694,3.468-3.584,7.007-7.648,9.023-12.122" transform="translate(-39.589 429.465)" fill="#d3e8d7"/>
        <path id="Trazado_873259" data-name="Trazado 873259" d="M833.65,87.129a22.311,22.311,0,0,0,2.093-11.639c-1.25-11.74-13.487-19.814-25.272-20.538s-23.136,4.036-33.98,8.7L660.68,113.489c-13.807,5.941-46.086,19.932-60.715,8.555-16.244-12.632-2.174-38.895,9.69-50.246,15.8-15.116,37.175-24.7,49.113-43.017,3.242-4.975,5.735-10.966,4.416-16.756-3.5-15.351-25.9-13.621-40.57-7.89a1193.6,1193.6,0,0,0-149.8,70.906c-23.913,13.427-48.186,27.97-75.36,31.677-4.855.662-10.213.848-14.192-2.012-9.081-6.524-3.212-20.885,3.972-29.454S402.7,54.686,396.2,45.587c-6.313-8.834-20.013-5.413-29.91-.949C301.019,74.084,236.6,109.469,179.3,152.587,126.235,192.513,59.085,215.512,0,246.8c52.117-17.752,109.123-14.994,163.287-5.111s106.9,26.617,161.061,36.484c86.379,15.735,178.86,15.143,264.154-6.887,48.093-12.423,84.942-43.73,122.433-74.576,37.136-30.553,77.226-58.923,110.918-93.736,4.535-4.686,9.161-10,11.8-15.848" transform="matrix(-0.998, -0.07, 0.07, -0.998, 1670.312, 768.797)" fill="#d3e8d7"/>
        <g id="Grupo_1099143" data-name="Grupo 1099143" transform="translate(737.333 -33.35)">
          <g id="Grupo_1099142" data-name="Grupo 1099142" clip-path="url(#clip-path-2)">
            <path id="Trazado_873136" data-name="Trazado 873136" d="M260.911.115a500.028,500.028,0,0,0-204.3,86.964C38.406,100.286,20.562,115.4,9.172,135.116,4.23,143.67-.609,153.908.063,164.045c.278,4.19,1.658,8.456,4.881,11.311a13.878,13.878,0,0,0,12.521,2.885c5.225-1.2,9.876-4.347,14.016-7.631,4.7-3.734,8.987-7.979,13.621-11.8a211.623,211.623,0,0,1,30.783-21.118q8.1-4.566,16.587-8.406a123.359,123.359,0,0,1,16.787-6.674c4.275-1.215,11.634-2.026,13.046,3.677,1.506,6.085-6.24,10.761-10.389,13.549C93.066,152.5,72.305,163,56.28,179.406A74.3,74.3,0,0,0,45.6,192.692c-2.653,4.411-4.49,9.69-3.09,14.833,1.123,4.128,4.218,7.923,8.625,8.6,5.936.911,11.261-3.409,15.764-6.642,18.812-13.509,36.088-28.99,54.51-43,18.278-13.9,38.093-26.655,60.354-33.061,6.5-1.87,13.574-3.119,20.193-1.107,5.311,1.615,10.161,5.913,11.6,11.387,1.7,6.45-2.636,11.8-6.923,16.063a89.263,89.263,0,0,1-14.578,11.534c-10.088,6.523-21.035,11.55-31.711,17-10.1,5.16-20.07,10.594-29.8,16.434-19.284,11.579-37.742,24.791-53.794,40.609A187.661,187.661,0,0,0,55.4,270.271c-6.162,8.676-12.188,18.173-15.751,28.256-2.9,8.208-4.61,18.875,1.087,26.329,6.412,8.39,18.5,7.732,26.863,2.854,5.028-2.933,9.154-7.144,12.959-11.49,4.211-4.809,8.277-9.74,12.532-14.511q13.1-14.691,27.337-28.315c9.421-9.015,19.1-18.037,29.513-25.9,9.742-7.35,21.46-14.106,34.112-13.011,5.319.461,13.2,2.976,12.42,9.752-.382,3.308-2.71,6.113-4.953,8.412-2.029,2.078-4.194,4.031-6.383,5.938-8.705,7.586-18.23,14.183-26.766,21.97-7.434,6.781-14.235,14.516-17.83,24.042a45.451,45.451,0,0,0-2.2,25.859c1.764,7.7,6.287,14.428,13.344,18.175.577.306,1.091-.57.512-.877-16.967-9.008-16.232-32.6-8.576-47.581,4.991-9.769,13.491-17.494,21.843-24.376,8.831-7.275,18.272-13.9,26.387-22.008,3.372-3.368,7.2-8.263,5.181-13.309-1.753-4.368-6.807-6.22-11.105-6.851-11.682-1.716-22.916,3.5-32.324,9.952-10.315,7.071-19.639,15.757-28.774,24.26Q110.417,281.256,97.1,295.778q-6.6,7.2-12.909,14.646c-3.8,4.481-7.536,9.083-12.066,12.858-4.608,3.84-10.1,6.652-16.169,7-5.618.322-11.256-1.685-14.63-6.354-5.984-8.285-2.932-20.3.807-28.851a142.287,142.287,0,0,1,17.059-28.189c13.527-17.94,30.471-33.075,48.7-46.1,18.419-13.164,38.223-24.257,58.44-34.393,10.8-5.414,21.764-10.727,31.535-17.908a70.285,70.285,0,0,0,12.78-11.6c3.151-3.826,5.2-8.465,3.89-13.457a17.719,17.719,0,0,0-8.856-10.665c-4.993-2.689-10.941-2.883-16.439-2.074a85.133,85.133,0,0,0-17.7,5.082,150.978,150.978,0,0,0-15,6.705c-20.237,10.362-38.09,24.694-55.632,39-9.021,7.357-18,14.772-27.283,21.8-4.613,3.494-9.287,7.388-14.429,10.077-3.083,1.612-6.8,2.636-10.12,1.062A10.529,10.529,0,0,1,44,208.591c-2.284-5.946.339-12.125,3.679-17.1a84.113,84.113,0,0,1,11.341-13.239c8.269-8.029,17.746-14.683,27.4-20.93,9.571-6.2,19.4-12,28.769-18.511,3.638-2.528,8.3-6.348,8.272-11.24-.024-4.166-3.58-6.53-7.386-6.821-5.072-.388-9.993,1.817-14.593,3.639q-8.288,3.285-16.281,7.255a213.211,213.211,0,0,0-31.227,19.013q-7.188,5.271-13.919,11.132c-4.566,3.978-8.879,8.238-14.011,11.509-4.566,2.911-10.277,5.5-15.769,3.885-5.087-1.5-8.1-5.979-8.936-11.02C-.4,155.728,4.909,144.68,9.964,135.9a122.455,122.455,0,0,1,21.51-26.78A244.221,244.221,0,0,1,58.3,87.175Q73.439,76.267,89.369,66.523a503.969,503.969,0,0,1,136.8-57.971Q243.5,4.081,261.119.868c.494-.09.284-.842-.208-.753" fill="#fff"/>
          </g>
        </g>
        <path id="Trazado_873138" data-name="Trazado 873138" d="M82.632.055C72.673,12.694,58.945,21.406,45.294,29.547,38.383,33.668,31.411,37.7,24.707,42.153,21.45,44.317,18.259,46.581,15.185,49a60.049,60.049,0,0,0-8.9,8.172c-4.547,5.371-8.667,13.359-4.672,20.18,4.1,7,13.325,7.621,20.346,5.648a88.451,88.451,0,0,0,12.879-5.241c4.195-1.932,8.365-3.917,12.534-5.9,8.45-4.027,16.9-8.068,25.536-11.685,16.69-6.991,34.395-12.484,52.661-12.344,11.867.091,26.313,2.57,34.114,12.493,10.224,13,1.743,30.39-4.838,42.9a181.976,181.976,0,0,0-11.592,26.105q-2.346,6.9-4.026,14A76.363,76.363,0,0,0,137.044,157c-.4,7.951,1.518,15.791,6.925,21.8a35.172,35.172,0,0,0,17.51,10.091c16.47,4.213,32.68-2.576,46.677-10.89,3.836-2.279,7.587-4.7,11.331-7.121.336-.218.023-.759-.315-.539-14.343,9.29-30.365,19.774-48.169,19.271-14.39-.406-29.618-8.388-32.74-23.454-1.932-9.321.49-19.172,2.974-28.157a153.235,153.235,0,0,1,10.348-27.126c4.038-8.155,8.879-16,11.554-24.761,1.935-6.336,2.76-13.335.551-19.717-3.887-11.23-15.752-16.384-26.653-18.215-15.988-2.686-32.609.3-47.858,5.248C71.951,59.025,55.768,67.3,39.424,74.994c-4.256,2-8.51,4.067-12.877,5.819-4.247,1.7-8.836,3.054-13.458,2.59-3.953-.4-8.008-2.132-10.395-5.419A12.456,12.456,0,0,1,1.309,66.733C3.832,58.79,10.7,53.077,17.095,48.209a217.518,217.518,0,0,1,19.653-13C50.072,27.184,63.964,19.571,75.251,8.7A79.574,79.574,0,0,0,82.856.279c.123-.159-.1-.384-.224-.224" transform="translate(1225.517 48.711)" fill="#9bb19f"/>
        <path id="Trazado_873139" data-name="Trazado 873139" d="M199.167.039,178.445,12.976l-10.362,6.469c-3.138,1.96-6.388,3.817-9.345,6.049-4.625,3.493-9.059,9.5-6.587,15.577,1.634,4.014,5.8,5.753,9.705,6.8,4.212,1.132,8.919,1.554,12.7,3.889a8.364,8.364,0,0,1,3.884,5.172c.812,3.488-.82,7.132-3.162,9.663-2.383,2.577-5.477,4.33-8.48,6.079q-5,2.908-9.954,5.888c-6.657,3.992-13.273,8.053-19.893,12.108-13.2,8.089-26.419,16.17-39.985,23.641A333.09,333.09,0,0,1,54.686,134.22c-6.3,2.39-12.7,4.459-19.069,6.635a123.337,123.337,0,0,1-18.034,5.093,38.448,38.448,0,0,1-8.866.68c-2.938-.163-6.191-.75-7.61-3.684-1.83-3.783,2.618-6.039,5.243-7.653,3.177-1.954,6.429-3.787,9.73-5.524,13.2-6.947,27.121-12.356,40.789-18.281,12.539-5.435,24.933-11.385,36.186-19.2a106.555,106.555,0,0,0,15.136-12.6,84.5,84.5,0,0,0,6.554-7.467c1.94-2.5,4.182-5.2,5.092-8.277.777-2.627.034-5.422-2.479-6.76a8.049,8.049,0,0,0-7.148.031c-2.973,1.388-5.192,3.983-7.471,6.258q-3.9,3.886-7.985,7.572A213.649,213.649,0,0,1,59.227,97.045c-6.4,3.719-13.388,7.144-20.886,7.66a25.169,25.169,0,0,1-5.614-.21c-1.677-.263-3.5-.805-4.359-2.41-1.537-2.869,1.377-6.237,3.387-8a53.531,53.531,0,0,1,7.906-5.2c2.7-1.612,5.434-3.158,8.178-4.691,5.429-3.032,10.9-6.008,16.157-9.332A86.155,86.155,0,0,0,78.372,63.824,55.38,55.38,0,0,0,84.238,57.1c1.561-2.12,3.92-5.084,1.976-7.685-1.795-2.4-5.032-2.276-7.531-1.228a47.82,47.82,0,0,0-8.247,4.977c-5.291,3.63-10.319,7.625-15.6,11.266-5.147,3.549-10.595,6.82-16.592,8.709a31.986,31.986,0,0,1-9.212,1.631c-1.575.013-3.427-.247-4.4-1.647-1.034-1.494-.405-3.342.489-4.732,1.826-2.839,5.087-4.683,7.928-6.359,2.986-1.762,6.1-3.291,9.241-4.757,6.284-2.935,12.726-5.637,18.535-9.47,2.206-1.455,5.124-3.342,4.958-6.359-.136-2.506-2.4-4.452-4.678-5.107-3.094-.889-6.315.63-8.891,2.236-3.362,2.1-6.586,4.443-9.86,6.673q-9.8,6.677-19.6,13.351c-.349.238-.019.81.333.57l20.254-13.79c3.243-2.208,6.426-4.587,9.8-6.588,3.071-1.819,7.021-3.113,10.1-.591a4.46,4.46,0,0,1,1.822,4.077c-.319,1.828-1.91,3.091-3.338,4.1a69.742,69.742,0,0,1-8.815,5.162c-6.2,3.125-12.692,5.681-18.763,9.074A35.392,35.392,0,0,0,26.02,66.2c-1.68,1.718-3.47,4.494-2.19,6.927,1.311,2.49,4.533,2.458,6.951,2.237a37.119,37.119,0,0,0,8.765-1.922C51.49,69.3,61,60.41,71.295,53.417c1.312-.891,2.64-1.758,3.992-2.587a19.8,19.8,0,0,1,4.89-2.437,5.244,5.244,0,0,1,4.977.893c1.735,1.554,1.06,3.637-.04,5.346A56.56,56.56,0,0,1,72.581,67.99c-9.843,7.83-21.31,13.251-32.1,19.6-2.63,1.549-5.277,3.121-7.78,4.873-2.2,1.541-4.38,3.744-5.181,6.375-2.152,7.071,8.443,6.932,12.635,6.383,7.2-.943,13.851-4.292,20.036-7.93a213.574,213.574,0,0,0,18.35-12.133q8.684-6.394,16.709-13.624,4.089-3.684,7.985-7.572c2.416-2.411,4.812-5.29,8.12-6.473,2.649-.948,6.445-.408,7.706,2.439,1.514,3.423-1.422,7.172-3.325,9.8a87.06,87.06,0,0,1-13.67,14.709c-10.228,8.826-22.088,15.574-34.25,21.348-13.338,6.334-27.166,11.562-40.575,17.74A205.639,205.639,0,0,0,7.391,133.851c-1.523.914-3.076,1.819-4.523,2.85A7.018,7.018,0,0,0,.354,139.46c-1.062,2.424.412,5.018,2.447,6.386,2.1,1.412,5.057,1.515,7.51,1.51a45.079,45.079,0,0,0,8.632-.97,139.03,139.03,0,0,0,17.92-5.238c6.548-2.247,13.127-4.382,19.586-6.881q10.671-4.128,20.991-9.088c13.948-6.692,27.409-14.36,40.682-22.291,13.3-7.943,26.409-16.184,39.691-24.147q4.938-2.962,9.914-5.861a33.636,33.636,0,0,0,8-5.831c3.594-3.885,5.147-10.2,1.066-14.322-2.927-2.955-7.454-3.746-11.343-4.625-4.1-.927-9.064-1.864-11.725-5.47a9.5,9.5,0,0,1-.882-9.014c1.255-3.371,3.871-5.936,6.723-8.019,3.025-2.209,6.3-4.1,9.468-6.086l10.351-6.487L199.419.471c.272-.171.022-.6-.252-.432" transform="translate(124.333 31.45)" fill="#c1ddc7"/>
        <g id="Grupo_1099157" data-name="Grupo 1099157">
          <path id="Trazado_873140" data-name="Trazado 873140" d="M196.251.088c-4.4,13.588-13.072,25.3-23.64,34.753C161.5,44.782,148.49,52.226,134.975,58.378,119.446,65.448,103.289,71,87.659,77.834c-3.917,1.711-7.8,3.5-11.622,5.411a98.5,98.5,0,0,0-10.983,6.148,69.372,69.372,0,0,0-9.35,7.965,46.258,46.258,0,0,1-9.264,7.126c-12.634,7.153-27.64,7.916-41,13.156q-2.342.917-4.6,2.025c.057.076.116.151.174.225a125.945,125.945,0,0,1,46.9-24.873,132.058,132.058,0,0,1,14.518-3.232c.228-.039.129-.38-.1-.347A124.891,124.891,0,0,0,.8,119.687c-.132.111.034.294.174.225,13.079-6.484,28.1-7.118,41.38-13.028a43.911,43.911,0,0,0,9-5.279c3.318-2.557,6.1-5.713,9.253-8.455A57.063,57.063,0,0,1,71.3,86.114c3.81-2.034,7.7-3.908,11.633-5.7,15.7-7.137,32.027-12.749,47.824-19.652,13.806-6.035,27.171-13.172,38.834-22.8,10.709-8.839,20.1-19.858,25.2-32.906q.947-2.422,1.706-4.907c.049-.156-.192-.221-.243-.067" transform="translate(1505.448 323.534) rotate(90)" fill="#9bb19f"/>
          <path id="Trazado_873141" data-name="Trazado 873141" d="M2.808,90.185A171.419,171.419,0,0,1,26.254,79.579c7.777-2.948,15.64-5.718,23.222-9.148a107.705,107.705,0,0,0,12.591-6.675c.194-.121.016-.428-.179-.307C47.435,72.337,30.9,76.837,15.459,83.6a106.785,106.785,0,0,0-12.72,6.461.069.069,0,0,0,.069.119" transform="translate(1477.85 324.383) rotate(90)" fill="#9bb19f"/>
          <path id="Trazado_873142" data-name="Trazado 873142" d="M76.007,51.274a35.132,35.132,0,0,0-10.513,9.413c-3.172,4.291-4.661,9.608-8.324,13.544a53.659,53.659,0,0,1-6.851,5.788c-.189.145-.027.461.192.332,4.524-2.659,9.175-5.22,12.958-8.918A23.569,23.569,0,0,0,67.962,65.5c1.094-2.105,1.81-4.379,2.688-6.576,1.062-2.658,2.413-5.3,4.9-6.886l-.185-.24c-4.013,3.536-6.339,8.409-9.115,12.881A32.935,32.935,0,0,1,54.021,76.543c-.136.075-.016.28.122.208a31.6,31.6,0,0,0,11.89-11.2C69,60.9,71.362,55.73,75.577,52.015c.131-.113-.039-.333-.185-.24-3.983,2.546-5.092,7.4-6.794,11.5-2.118,5.1-5.936,8.918-10.421,12.02a81.306,81.306,0,0,1-7.858,4.729c.063.111.128.221.192.332C54.6,77.4,58.468,74.2,60.859,69.67c1.239-2.346,2.276-4.783,3.708-7.025a34.8,34.8,0,0,1,4.76-5.909,35.6,35.6,0,0,1,6.774-5.3.094.094,0,0,0-.095-.162" transform="translate(1483.142 345.066) rotate(90)" fill="#9bb19f"/>
          <path id="Trazado_873143" data-name="Trazado 873143" d="M127.971,44.826c-6.547,2.959-13.7,4.021-20.842,4.192a159.86,159.86,0,0,1-21.615-1.27q-11.435-1.285-22.723-3.612c-7.436-1.53-14.752-3.476-22.051-5.551-7.928-2.253-15.952-4.42-24.23-4.772l.044.33c13.905-1.9,28.221-3.282,42.115-.54,6.91,1.365,13.35,4.041,19.89,6.569A128.184,128.184,0,0,0,99.07,46c3.8.782,7.614,1.642,11.464,2.12a32.2,32.2,0,0,0,11.832-.669c.224-.056.123-.366-.092-.334-13.294,1.909-26.737.123-39.842-2.293-13.087-2.413-26.113-5.165-39.18-7.687-7.193-1.386-14.428-2.616-21.71-3.437-.144-.016-.142.208,0,.225C34.9,35.507,48.1,38.438,61.29,41.026c12.967,2.545,25.965,5.5,39.144,6.705a96.781,96.781,0,0,0,21.931-.283c-.03-.112-.06-.224-.092-.334a31.827,31.827,0,0,1-10.873.718c-3.66-.387-7.275-1.229-10.876-1.972a136.276,136.276,0,0,1-20.573-5.633c-6.563-2.467-12.985-5.266-19.868-6.747a88.919,88.919,0,0,0-20.453-1.752A202.477,202.477,0,0,0,16.464,33.82c-.194.026-.135.321.046.33,7.618.327,15.029,2.212,22.336,4.275,7.345,2.075,14.677,4.132,22.145,5.731q11.136,2.383,22.458,3.736A175.463,175.463,0,0,0,105.534,49.4c7.715-.055,15.5-1.124,22.565-4.36.148-.067.019-.284-.128-.218" transform="translate(1491.651 330.317) rotate(90)" fill="#9bb19f"/>
          <path id="Trazado_873144" data-name="Trazado 873144" d="M137.633,21.46a65.793,65.793,0,0,0-9.575,9.108,49.65,49.65,0,0,0-6.163,10.5,67.488,67.488,0,0,1-5.779,10.805c-2.764,3.871-6.59,6.684-10.352,9.511q-6.684,5.025-13.522,9.838l.222.222Q99.3,62.016,106.23,52.658A114.44,114.44,0,0,1,120.968,36.02c3.05-2.768,6.23-5.385,9.412-8,.126-.1-.044-.327-.177-.228-5.4,4.056-9.237,9.685-12.994,15.2a132.81,132.81,0,0,1-13.657,17.219A115.086,115.086,0,0,1,94.374,68.8c-.175.146.077.4.253.251a112.978,112.978,0,0,0,15.386-15.632c4.341-5.386,7.859-11.335,12.02-16.849a41.841,41.841,0,0,1,8.317-8.531c-.057-.076-.116-.152-.175-.228-5.784,4.7-11.575,9.426-16.533,15.016-4.877,5.5-9.083,11.56-13.415,17.486Q96.217,65.8,92.183,71.276c-.1.131.093.314.222.222q6.2-4.346,12.268-8.865c3.588-2.671,7.377-5.283,10.3-8.706,5.386-6.3,7.3-14.675,12.017-21.4,2.961-4.228,6.912-7.562,10.739-10.966.066-.06-.03-.152-.1-.1" transform="translate(1496.117 363.309) rotate(90)" fill="#9bb19f"/>
        </g>
        <g id="Grupo_1099152" data-name="Grupo 1099152" transform="translate(1323.714 490.161)" clip-path="url(#clip-path-3)">
          <path id="Trazado_873145" data-name="Trazado 873145" d="M17.58.91A22.361,22.361,0,0,0,4.809.952,7.324,7.324,0,0,0,.912,3.3C-.965,5.826.374,9.43,2.073,12.082,7.008,19.787,14.412,25.522,21.668,31.1c3.673,2.822,8.066,5.81,12.557,4.673,4.671-1.181,7.184-6.463,7.353-11.278.309-8.789-.809-11.373-7-15.37A73.093,73.093,0,0,0,17.58.91" fill="#c1ddc7"/>
          <path id="Trazado_873146" data-name="Trazado 873146" d="M72.661,18.379c-.27-2.624-2.6-4.956-8.025-6.012-4.087-.8-8.911.586-10.83,4.281a11.811,11.811,0,0,0-.973,6.1c.138,2.577.874,5.506,3.189,6.646,1.671.822,3.655.443,5.475.046,6.208-1.354,11.621-6.624,11.164-11.059" fill="#c1ddc7"/>
          <path id="Trazado_873147" data-name="Trazado 873147" d="M55.62,47.959c-2.04-2.821-5.006-5.676-8.454-5.191s-5.6,4.271-5.589,7.748,1.583,6.728,2.931,9.933A9.6,9.6,0,0,0,46.775,64.2a7.07,7.07,0,0,0,5.18,1.289c3.1-.24,8.12-2.1,9.108-5.512,1.04-3.6-3.393-9.184-5.443-12.018" fill="#c1ddc7"/>
        </g>
        <g id="Grupo_1099154" data-name="Grupo 1099154" transform="translate(550.333 114.398)" clip-path="url(#clip-path-4)">
          <path id="Trazado_873148" data-name="Trazado 873148" d="M31.45,8.628a15.954,15.954,0,0,0-4.859-1,5.613,5.613,0,0,0-4.426,1.893,5.554,5.554,0,0,0-.785,4.729,14.582,14.582,0,0,0,2.191,4.425,84.622,84.622,0,0,0,5.516,7.441,10.424,10.424,0,0,0,3.905,3.3,11.107,11.107,0,0,0,4.6.453c2.254-.1,4.725-.282,6.346-1.851,1.406-1.362,1.813-3.445,1.936-5.4.2-3.152.359-7.54-2.1-9.7-2.564-2.25-9.1-3.263-12.327-4.3" fill="#f2f8f4"/>
          <path id="Trazado_873149" data-name="Trazado 873149" d="M11.722,28.762a2.68,2.68,0,0,0-.758,1.656,2.886,2.886,0,0,0,1.381,2.053,19.088,19.088,0,0,0,7.432,3.484c1.343.3,2.926.4,3.921-.557,1.023-.979.964-2.634.581-4-1.912-6.815-7.925-8.206-12.557-2.638" fill="#f2f8f4"/>
          <path id="Trazado_873150" data-name="Trazado 873150" d="M11.717,16.372c-1.011.93-2.523,1-3.9.978a2.715,2.715,0,0,1-1.134-.184A2.76,2.76,0,0,1,5.68,16.127L1.64,10.12C.616,8.6-.453,6.749.2,5.033A4.515,4.515,0,0,1,1.821,3.109,20.187,20.187,0,0,1,6.188.858C7.756.2,9.6-.438,11.078.4c3.849,2.173,3.651,13.212.639,15.975" fill="#f2f8f4"/>
        </g>
        <g id="Grupo_1099158" data-name="Grupo 1099158" transform="translate(12699.333 12261)">
          <path id="Trazado_873131" data-name="Trazado 873131" d="M59.479,302.411c-13-12.425-21.774-28.507-27.024-45.593-5.5-17.9-7.3-36.672-7.178-55.332.141-22.412,2.733-44.7,3.823-67.071a268.648,268.648,0,0,0,.017-33.454,70.314,70.314,0,0,0-2.909-15.626c-1.583-5.082-3.486-10.052-4.348-15.328-3.342-20.444,5.473-40.382,7.195-60.541q.317-3.706.3-7.426l-.393.053A166.106,166.106,0,0,1,31.679,71.82a175.751,175.751,0,0,1-4.5,19.244.25.25,0,0,0,.482.133A163.252,163.252,0,0,0,33.22,21.643,163.794,163.794,0,0,0,29.344,1.987a.2.2,0,0,0-.394.053c.211,20.613-8.881,40.133-8.212,60.762a55.845,55.845,0,0,0,2.426,14.522c1.613,5.3,3.62,10.444,4.558,15.925,1.907,11.153,1.46,22.842,1.046,34.1-.832,22.68-3.51,45.255-4.037,67.95-.441,18.977.806,38.062,5.694,56.469C34.9,268.608,42.472,285.063,54.45,297.9q2.3,2.466,4.78,4.756c.166.153.413-.092.249-.249" transform="translate(-11914 -11955.679)" fill="#748578"/>
          <path id="Trazado_873132" data-name="Trazado 873132" d="M29.95,6.447a223.908,223.908,0,0,1-.79,33.4c-.958,11.084-2.207,22.167-2.479,33.3A141.289,141.289,0,0,0,27.4,91.9c.035.313.529.318.5,0-1.143-11.075-.66-22.277.178-33.356.839-11.1,2.06-22.178,2.46-33.311a139.216,139.216,0,0,0-.4-18.785c-.012-.12-.2-.124-.191,0" transform="translate(-11914 -11955.679)" fill="#748578"/>
          <path id="Trazado_873133" data-name="Trazado 873133" d="M28.715,143.2a46.084,46.084,0,0,0-5.569-18.648,60.953,60.953,0,0,0-5.62-8.127,34.406,34.406,0,0,1-5.384-9.009A76.117,76.117,0,0,1,9.291,96.195c-.062-.291-.55-.232-.525.071.581,6.971.956,14.04,3.245,20.713A30.712,30.712,0,0,0,16.72,125.9c1.953,2.514,4.3,4.687,6.414,7.056,2.351,2.63,4.508,5.624,4.917,9.227l.418-.058c-1.443-5.217-4.451-9.737-7.432-14.185-3.2-4.776-6.266-9.569-7.962-15.115A41.808,41.808,0,0,1,11.3,102.642c-.011-.215-.344-.217-.336,0A39.749,39.749,0,0,0,15.514,119.8c2.539,4.839,5.944,9.146,8.719,13.843a35.812,35.812,0,0,1,3.826,8.6c.062.222.446.188.418-.056-.711-6.26-5.989-10.406-9.9-14.825a30.428,30.428,0,0,1-5.472-8.822,46.93,46.93,0,0,1-2.681-10.163A104.763,104.763,0,0,1,9.3,96.266l-.524.071a66.821,66.821,0,0,0,2.38,9.972,30.77,30.77,0,0,0,4.719,8.84,101.029,101.029,0,0,1,5.992,8.158,45.9,45.9,0,0,1,4.175,8.853A46.52,46.52,0,0,1,28.453,143.2c.015.166.275.169.262,0" transform="translate(-11914 -11955.679)" fill="#748578"/>
          <path id="Trazado_873134" data-name="Trazado 873134" d="M25.178,195.935c.225-9.769,3.255-19.173,7.33-27.976a221.7,221.7,0,0,1,14.453-25.606q7.964-12.522,17.022-24.3c6.032-7.849,12.5-15.31,19.063-22.714,6.235-7.031,12.429-14.2,17.238-22.311q.9-1.525,1.737-3.09l-.43-.181c-2.762,8.537-5.707,17.027-9.286,25.261a127,127,0,0,1-12.759,23.118,91.283,91.283,0,0,1-8.712,10.486c-3.305,3.42-6.835,6.613-10.321,9.845-3.545,3.285-7.017,6.637-10.24,10.242s-6.262,7.4-9.215,11.24c-2.968,3.864-5.981,7.725-8.74,11.741a44.884,44.884,0,0,0-6.2,12.594c-.339,1.141-.623,2.295-.861,3.461a.242.242,0,0,0,.467.128,117.687,117.687,0,0,1,10.145-22.766,231.853,231.853,0,0,1,13.667-20.883c5.114-7.087,10.422-14.035,15.672-21.022q8.347-11.109,16.68-22.23c5.4-7.233,10.673-14.566,15.574-22.147.613-.947,1.215-1.9,1.818-2.855.108-.17-.162-.327-.27-.157C94.159,83.483,88.8,90.808,83.4,98.1c-5.51,7.45-11.094,14.846-16.65,22.263-5.308,7.086-10.651,14.149-15.873,21.3-4.934,6.754-9.714,13.635-13.973,20.84a128.172,128.172,0,0,0-10.656,22.3q-.521,1.466-1,2.946l.467.128a41.65,41.65,0,0,1,5.391-13.359c2.567-4.133,5.639-7.954,8.59-11.814,2.984-3.9,6.015-7.773,9.224-11.494A142.154,142.154,0,0,1,59,140.727c3.486-3.292,7.062-6.49,10.461-9.873a95.284,95.284,0,0,0,8.868-10.11A119.14,119.14,0,0,0,91.6,97.832a254.386,254.386,0,0,0,9.4-24.781q.522-1.583,1.037-3.169a.235.235,0,0,0-.428-.181c-4.532,8.481-10.677,15.926-17.007,23.111-6.5,7.383-13.048,14.7-19.13,22.442q-9.189,11.7-17.29,24.193a248.686,248.686,0,0,0-14.9,25.7C29.11,173.687,25.8,182.82,25,192.356q-.148,1.786-.179,3.579a.176.176,0,0,0,.352,0" transform="translate(-11914 -11955.679)" fill="#748578"/>
          <path id="Trazado_873135" data-name="Trazado 873135" d="M33.806,262.48A84.552,84.552,0,0,0,28.244,245.4a67.78,67.78,0,0,0-9.026-13.229c-3.387-4.144-6.868-8.28-9.4-13.025-2.87-5.384-3.98-11.4-5.154-17.32Q2.519,190.983.713,180.081l-.415.174c4.766,8.92,9.57,17.821,14.259,26.782,2.263,4.324,4.46,8.686,6.4,13.165a123.48,123.48,0,0,1,5,13.881c1.576,5.292,2.888,10.656,4.194,16.02.062.255.44.145.39-.108-1.761-8.911-6.412-16.827-10.9-24.6A171.174,171.174,0,0,1,7.224,199.615,150.4,150.4,0,0,1,2.372,184.05a.248.248,0,0,0-.479.131,149.612,149.612,0,0,0,9.629,26.957c2.022,4.3,4.289,8.466,6.679,12.568,2.289,3.928,4.642,7.823,6.711,11.874A53.906,53.906,0,0,1,30.148,250.1l.39-.108c-2.277-9.6-4.586-19.224-8.417-28.347-3.8-9.056-8.664-17.635-13.285-26.287Q4.746,187.7.69,180.026c-.129-.242-.454-.063-.415.175q1.6,9.742,3.465,19.438c1.149,5.96,2.1,12.132,4.621,17.7,4.417,9.768,13.036,16.741,18.277,25.993,3.389,5.98,5.1,12.64,6.983,19.2a.1.1,0,0,0,.185-.051" transform="translate(-11914 -11955.679)" fill="#748578"/>
        </g>
      </g>
    </g>
  </g>
</svg>
