<svg xmlns="http://www.w3.org/2000/svg" width="109.48" height="109.48" viewBox="0 0 109.48 109.48">
  <g id="Grupo_1103616" data-name="Grupo 1103616" transform="translate(-220.26 -7653.739)">
    <circle id="Elipse_11518" data-name="Elipse 11518" cx="54.74" cy="54.74" r="54.74" transform="translate(220.26 7653.739)" fill="#c78437"/>
    <path id="Trazado_876169" data-name="Trazado 876169" d="M-10.2.427q-8.75,0-8.75-12.288,0-6.375,2.367-9.716a7.886,7.886,0,0,1,6.862-3.341q8.545,0,8.545,12.493,0,6.221-2.333,9.536A7.684,7.684,0,0,1-10.2.427ZM-9.963-20.8q-3.5,0-3.5,8.8,0,8.289,3.435,8.289,3.35,0,3.35-8.545T-9.963-20.8Zm24.182-4.255V0H8.835V-18.97a6.447,6.447,0,0,1-1.051.743,10.85,10.85,0,0,1-1.29.632,11.521,11.521,0,0,1-1.418.479,10.36,10.36,0,0,1-1.453.282v-4.546a22.456,22.456,0,0,0,3.965-1.572,22.564,22.564,0,0,0,3.367-2.1Z" transform="translate(276 7721)" fill="#fcdbb4"/>
  </g>
</svg>
