<svg xmlns="http://www.w3.org/2000/svg" width="109.48" height="109.48" viewBox="0 0 109.48 109.48">
  <g id="Grupo_1103618" data-name="Grupo 1103618" transform="translate(-639.594 -7653.572)">
    <circle id="Elipse_11524" data-name="Elipse 11524" cx="54.74" cy="54.74" r="54.74" transform="translate(639.594 7653.572)" fill="#c78437"/>
    <path id="Trazado_876171" data-name="Trazado 876171" d="M-10.2.427q-8.75,0-8.75-12.288,0-6.375,2.367-9.716a7.886,7.886,0,0,1,6.862-3.341q8.545,0,8.545,12.493,0,6.221-2.333,9.536A7.684,7.684,0,0,1-10.2.427ZM-9.963-20.8q-3.5,0-3.5,8.8,0,8.289,3.435,8.289,3.35,0,3.35-8.545T-9.963-20.8ZM2-.8V-5.5A9.486,9.486,0,0,0,7.742-3.708,5.17,5.17,0,0,0,10.963-4.6a2.951,2.951,0,0,0,1.154-2.478A2.817,2.817,0,0,0,10.69-9.6a7.393,7.393,0,0,0-3.922-.889H4.495v-4.136H6.6q4.785,0,4.785-3.179,0-2.991-3.674-2.991a8.377,8.377,0,0,0-4.785,1.589v-4.409a13.216,13.216,0,0,1,6.016-1.3,9.078,9.078,0,0,1,5.853,1.692,5.384,5.384,0,0,1,2.094,4.392q0,4.8-4.871,6.016v.085a6.622,6.622,0,0,1,4.1,1.888,5.325,5.325,0,0,1,1.5,3.837,6.575,6.575,0,0,1-2.512,5.435,10.862,10.862,0,0,1-6.938,2A13.41,13.41,0,0,1,2-.8Z" transform="translate(695 7721)" fill="#fcdbb4"/>
  </g>
</svg>
