<svg xmlns="http://www.w3.org/2000/svg" width="109.48" height="109.48" viewBox="0 0 109.48 109.48">
  <g id="Grupo_1103619" data-name="Grupo 1103619" transform="translate(-850.016 -7653.739)">
    <circle id="Elipse_11522" data-name="Elipse 11522" cx="54.74" cy="54.74" r="54.74" transform="translate(850.016 7653.739)" fill="#748578"/>
    <path id="Trazado_876168" data-name="Trazado 876168" d="M-10.2.427q-8.75,0-8.75-12.288,0-6.375,2.367-9.716a7.886,7.886,0,0,1,6.862-3.341q8.545,0,8.545,12.493,0,6.221-2.333,9.536A7.684,7.684,0,0,1-10.2.427ZM-9.963-20.8q-3.5,0-3.5,8.8,0,8.289,3.435,8.289,3.35,0,3.35-8.545T-9.963-20.8ZM16.27-24.507V-9.058h2.939v4.033H16.27V0H11.348V-5.024H.667V-9.246q1.418-1.589,2.939-3.478t2.939-3.888q1.418-2,2.64-4.025a40.345,40.345,0,0,0,2.076-3.871ZM5.5-9.058h5.845V-17.62q-.6,1.111-1.3,2.247t-1.47,2.239Q7.81-12.031,7.024-11T5.5-9.058Z" transform="translate(905 7721)" fill="#c1ddc7"/>
  </g>
</svg>
