<svg xmlns="http://www.w3.org/2000/svg" width="109.48" height="109.48" viewBox="0 0 109.48 109.48">
  <g id="Grupo_1103620" data-name="Grupo 1103620" transform="translate(-1060.757 -7653.739)">
    <circle id="Elipse_11528" data-name="Elipse 11528" cx="54.74" cy="54.74" r="54.74" transform="translate(1060.757 7653.739)" fill="#c78437"/>
    <path id="Trazado_876166" data-name="Trazado 876166" d="M-10.2.427q-8.75,0-8.75-12.288,0-6.375,2.367-9.716a7.886,7.886,0,0,1,6.862-3.341q8.545,0,8.545,12.493,0,6.221-2.333,9.536A7.684,7.684,0,0,1-10.2.427ZM-9.963-20.8q-3.5,0-3.5,8.8,0,8.289,3.435,8.289,3.35,0,3.35-8.545T-9.963-20.8ZM2.427-.632V-5.247A10.074,10.074,0,0,0,7.776-3.708a5.024,5.024,0,0,0,3.341-1.017,3.423,3.423,0,0,0,1.2-2.76q0-3.64-5.144-3.64a38.091,38.091,0,0,0-4.375.291l.923-13.672H16.7V-20.1H7.844l-.342,4.9q1.316-.1,2.273-.1a8.358,8.358,0,0,1,5.913,1.982,6.923,6.923,0,0,1,2.136,5.332,7.87,7.87,0,0,1-2.546,6.058,9.784,9.784,0,0,1-6.9,2.35A14.774,14.774,0,0,1,2.427-.632Z" transform="translate(1115 7721)" fill="#fcdbb4"/>
  </g>
</svg>
