<svg xmlns="http://www.w3.org/2000/svg" width="109.48" height="109.48" viewBox="0 0 109.48 109.48">
  <g id="Grupo_1103615" data-name="Grupo 1103615" transform="translate(-1270.185 -7653.739)">
    <circle id="Elipse_11526" data-name="Elipse 11526" cx="54.74" cy="54.74" r="54.74" transform="translate(1270.185 7653.739)" fill="#748578"/>
    <path id="Trazado_876167" data-name="Trazado 876167" d="M-10.2.427q-8.75,0-8.75-12.288,0-6.375,2.367-9.716a7.886,7.886,0,0,1,6.862-3.341q8.545,0,8.545,12.493,0,6.221-2.333,9.536A7.684,7.684,0,0,1-10.2.427ZM-9.963-20.8q-3.5,0-3.5,8.8,0,8.289,3.435,8.289,3.35,0,3.35-8.545T-9.963-20.8ZM18.97-8.152a8.983,8.983,0,0,1-.632,3.384,8.26,8.26,0,0,1-1.76,2.726A8.144,8.144,0,0,1,13.894-.231a8.64,8.64,0,0,1-3.4.658,8.579,8.579,0,0,1-3.7-.769,7.468,7.468,0,0,1-2.76-2.23,10.427,10.427,0,0,1-1.726-3.58,17.693,17.693,0,0,1-.6-4.8,19.772,19.772,0,0,1,.778-5.734,13.164,13.164,0,0,1,2.222-4.4A9.979,9.979,0,0,1,8.2-23.917a10.392,10.392,0,0,1,4.614-1,11.639,11.639,0,0,1,4.409.667v4.512a8.085,8.085,0,0,0-4.067-1.06,5.684,5.684,0,0,0-2.478.53,5.477,5.477,0,0,0-1.906,1.5,7.271,7.271,0,0,0-1.248,2.35,10.458,10.458,0,0,0-.487,3.068h.1a5.944,5.944,0,0,1,5.144-2.41,6.7,6.7,0,0,1,2.751.547,5.969,5.969,0,0,1,2.1,1.547,7.1,7.1,0,0,1,1.35,2.4A9.58,9.58,0,0,1,18.97-8.152Zm-5.281.342q0-3.948-3.23-3.948a3.169,3.169,0,0,0-1.333.273,2.966,2.966,0,0,0-1.025.769,3.509,3.509,0,0,0-.658,1.171,4.6,4.6,0,0,0-.231,1.5,5.784,5.784,0,0,0,.239,1.692,4.493,4.493,0,0,0,.675,1.376A3.343,3.343,0,0,0,9.16-4.05a2.639,2.639,0,0,0,1.333.342,2.886,2.886,0,0,0,1.324-.3,2.966,2.966,0,0,0,1.008-.837,3.849,3.849,0,0,0,.641-1.3A5.925,5.925,0,0,0,13.689-7.81Z" transform="translate(1324 7721)" fill="#c1ddc7"/>
  </g>
</svg>
