<svg xmlns="http://www.w3.org/2000/svg" width="109.48" height="109.48" viewBox="0 0 109.48 109.48">
  <g id="Grupo_1103618" data-name="Grupo 1103618" transform="translate(-7237.752 7066.667)">
    <path id="Trazado_876166" data-name="Trazado 876166" d="M54.74,0A54.74,54.74,0,1,1,0,54.74,54.74,54.74,0,0,1,54.74,0Z" transform="translate(7237.752 -7066.667)" fill="#c78437"/>
    <path id="Trazado_876167" data-name="Trazado 876167" d="M-1.641-10.288q0,5.161-2.136,7.9A7.457,7.457,0,0,1-10.032.342a7.509,7.509,0,0,1-6.221-2.683q-2.153-2.683-2.2-7.69v-4.58q0-5.212,2.162-7.913a7.512,7.512,0,0,1,6.229-2.7A7.519,7.519,0,0,1-3.845-22.55q2.153,2.675,2.2,7.682ZM-6.58-15.324a9.112,9.112,0,0,0-.846-4.508,2.859,2.859,0,0,0-2.64-1.411A2.808,2.808,0,0,0-12.638-19.9a8.527,8.527,0,0,0-.88,4.2v6.056a9.565,9.565,0,0,0,.829,4.525,2.821,2.821,0,0,0,2.657,1.48A2.774,2.774,0,0,0-7.417-5.06,9.336,9.336,0,0,0-6.58-9.405Zm25.19-6.8L8.989,0H3.777l9.639-20.9H1.042v-3.982H18.611Z" transform="translate(7290.429 -6998.283)" fill="#fcdbb4"/>
  </g>
</svg>
