<svg xmlns="http://www.w3.org/2000/svg" width="109.48" height="109.48" viewBox="0 0 109.48 109.48">
  <g id="Grupo_1103617" data-name="Grupo 1103617" transform="translate(-431.981 -7653.739)">
    <circle id="Elipse_11520" data-name="Elipse 11520" cx="54.74" cy="54.74" r="54.74" transform="translate(431.981 7653.739)" fill="#748578"/>
    <path id="Trazado_876170" data-name="Trazado 876170" d="M-10.2.427q-8.75,0-8.75-12.288,0-6.375,2.367-9.716a7.886,7.886,0,0,1,6.862-3.341q8.545,0,8.545,12.493,0,6.221-2.333,9.536A7.684,7.684,0,0,1-10.2.427ZM-9.963-20.8q-3.5,0-3.5,8.8,0,8.289,3.435,8.289,3.35,0,3.35-8.545T-9.963-20.8ZM7.332-4.478H17.722V0H1.418V-1.846a8.591,8.591,0,0,1,.632-3.375A11.2,11.2,0,0,1,3.64-7.9a13.786,13.786,0,0,1,2.094-2.1Q6.87-10.92,7.9-11.655q1.077-.769,1.888-1.47a10.761,10.761,0,0,0,1.367-1.393,5.3,5.3,0,0,0,.829-1.4,4.168,4.168,0,0,0,.273-1.512,3.04,3.04,0,0,0-.889-2.375,3.951,3.951,0,0,0-2.717-.8A9.127,9.127,0,0,0,2.6-18.1v-4.751A12.987,12.987,0,0,1,9.81-24.917a10.651,10.651,0,0,1,3.341.487,7.068,7.068,0,0,1,2.5,1.393,5.94,5.94,0,0,1,1.564,2.2,7.411,7.411,0,0,1,.538,2.88,8.119,8.119,0,0,1-.521,3.008,9.242,9.242,0,0,1-1.384,2.393,12.557,12.557,0,0,1-1.991,1.974q-1.128.9-2.341,1.735Q10.7-8.271,9.938-7.7A14.987,14.987,0,0,0,8.6-6.571a6.123,6.123,0,0,0-.923,1.085A1.873,1.873,0,0,0,7.332-4.478Z" transform="translate(486 7721)" fill="#c1ddc7"/>
  </g>
</svg>
