<svg xmlns="http://www.w3.org/2000/svg" xmlns:xlink="http://www.w3.org/1999/xlink" width="1241.809" height="127.47" viewBox="0 0 1241.809 127.47">
  <defs>
    <radialGradient id="radial-gradient" cx="0.403" cy="0.299" r="0.521" gradientTransform="matrix(0, 1, 1.715, 0, -0.11, -0.104)" gradientUnits="objectBoundingBox">
      <stop offset="0" stop-color="#fff6d8"/>
      <stop offset="1" stop-color="#d6f0e1"/>
    </radialGradient>
    <clipPath id="clip-path">
      <path id="Trazado_766043" data-name="Trazado 766043" d="M23.034,0C10.313,0,0,8.878,0,19.83v87.81c0,10.952,10.313,19.83,23.034,19.83H1218.775c12.721,0,23.034-8.878,23.034-19.83V19.83C1241.809,8.878,1231.5,0,1218.775,0Z" fill="url(#radial-gradient)"/>
    </clipPath>
    <clipPath id="clip-path-2">
      <path id="Trazado_875335" data-name="Trazado 875335" d="M23.034,0C10.313,0,0,8.878,0,19.83v87.81c0,10.952,10.313,19.83,23.034,19.83H1218.775c12.721,0,23.034-8.878,23.034-19.83V19.83C1241.809,8.878,1231.5,0,1218.775,0Z" transform="translate(179.571 812)" fill="url(#radial-gradient)"/>
    </clipPath>
    <radialGradient id="radial-gradient-4" cx="1" cy="0.924" r="1.343" gradientTransform="matrix(-0.436, -0.9, -0.808, 0.391, 2.183, 1.463)" gradientUnits="objectBoundingBox">
      <stop offset="0" stop-color="#f9a545"/>
      <stop offset="1" stop-color="#feedda"/>
    </radialGradient>
  </defs>
  <g id="Grupo_1103615" data-name="Grupo 1103615" transform="translate(-179.096 -1971.987)">
    <g id="Grupo_1102730" data-name="Grupo 1102730" transform="translate(179.096 1971.987)">
      <g id="Grupo_1073211" data-name="Grupo 1073211" clip-path="url(#clip-path)">
        <rect id="Rectángulo_378055" data-name="Rectángulo 378055" width="767.633" height="1316.637" transform="matrix(0.271, -0.962, 0.962, 0.271, -116.861, 414.525)" fill="url(#radial-gradient)"/>
      </g>
    </g>
    <g id="Grupo_1103614" data-name="Grupo 1103614">
      <g id="Enmascarar_grupo_1098676" data-name="Enmascarar grupo 1098676" transform="translate(-0.476 1159.987)" clip-path="url(#clip-path-2)">
        <g id="Grupo_1102732" data-name="Grupo 1102732">
          <g id="Grupo_1102731" data-name="Grupo 1102731" transform="translate(161.632 797.389)">
            <path id="Trazado_875332" data-name="Trazado 875332" d="M234.23,51.653c5.5,7.575,8.44,17.643,5.3,26.462-6.062,17.032-31.178,22.628-34.5,40.4-2.18,11.66,6.39,22.344,14.516,30.985s17.017,18.856,15.635,30.638c-.959,8.183-7.055,15.157-14.454,18.783s-15.927,4.306-24.146,3.723a85.3,85.3,0,0,1-29.066-7.36c-16.583-7.51-31.319-20.5-49.434-22.291-7.049-.7-14.99.832-19.265,6.481-4.569,6.034-3.489,14.507-5.644,21.762-4.376,14.719-22.457,22.149-37.4,18.621s-26.656-15.363-34.72-28.431C2.96,162.117-.257,126.125.015,91.683c.2-25.5,3.342-55.212,21.678-74.863C40.228-3.045,80.808-.749,105.153,1.33c24.259,2.072,48.574,6.22,71.51,14.589,19.455,7.1,45.13,18.6,57.567,35.734" transform="translate(0 0)" fill="url(#radial-gradient-4)"/>
            <path id="Trazado_875333" data-name="Trazado 875333" d="M147.48.059c10.721,13.606,25.5,22.985,40.195,31.748,7.44,4.436,14.945,8.775,22.162,13.57,3.506,2.33,6.941,4.767,10.251,7.371a64.643,64.643,0,0,1,9.578,8.8c4.895,5.782,9.33,14.381,5.029,21.724-4.409,7.53-14.344,8.2-21.9,6.08a95.218,95.218,0,0,1-13.864-5.642c-4.516-2.08-9-4.217-13.493-6.356-9.1-4.335-18.193-8.685-27.49-12.579-17.967-7.526-37.026-13.439-56.69-13.288-12.775.1-28.326,2.767-36.724,13.449-11.006,14-1.876,32.715,5.208,46.184a195.9,195.9,0,0,1,12.479,28.1q2.525,7.43,4.334,15.076a82.2,82.2,0,0,1,2.353,14.719c.433,8.559-1.634,17-7.455,23.468-4.935,5.485-11.76,9.049-18.85,10.863-17.73,4.535-35.18-2.773-50.248-11.723-4.129-2.453-8.167-5.054-12.2-7.666-.362-.235-.025-.817.339-.58,15.44,10,32.688,21.287,51.854,20.745,15.491-.437,31.884-9.03,35.245-25.248,2.08-10.034-.527-20.639-3.2-30.311a164.959,164.959,0,0,0-11.14-29.2c-4.347-8.779-9.558-17.228-12.438-26.655-2.083-6.821-2.971-14.355-.593-21.226,4.184-12.089,16.957-17.638,28.692-19.609,17.211-2.892,35.1.323,51.52,5.65,18.546,6.019,35.967,14.923,53.562,23.21,4.582,2.157,9.161,4.378,13.862,6.264,4.572,1.835,9.512,3.288,14.488,2.788,4.255-.427,8.621-2.3,11.19-5.834,2.583-3.559,2.789-8.023,1.491-12.112-2.716-8.551-10.108-14.7-16.994-19.941A234.16,234.16,0,0,0,196.875,37.9c-14.343-8.64-29.3-16.836-41.449-28.535A85.661,85.661,0,0,1,147.239.3c-.132-.171.105-.413.241-.241" transform="translate(67.934 27.94)" fill="#9bb19f"/>
          </g>
          <path id="Trazado_875334" data-name="Trazado 875334" d="M833.65,87.129a22.311,22.311,0,0,0,2.093-11.639c-1.25-11.74-13.487-19.814-25.272-20.538s-23.136,4.036-33.98,8.7L660.68,113.489c-13.807,5.941-46.086,19.932-60.715,8.555-16.244-12.632-2.174-38.895,9.69-50.246,15.8-15.116,37.175-24.7,49.113-43.017,3.242-4.975,5.735-10.966,4.416-16.756-3.5-15.351-25.9-13.621-40.57-7.89a1193.6,1193.6,0,0,0-149.8,70.906c-23.913,13.427-48.186,27.97-75.36,31.677-4.855.662-10.213.848-14.192-2.012-9.081-6.524-3.212-20.885,3.972-29.454S402.7,54.686,396.2,45.587c-6.313-8.834-20.013-5.413-29.91-.949C301.019,74.084,236.6,109.469,179.3,152.587,126.235,192.513,59.085,215.512,0,246.8c52.117-17.752,109.123-14.994,163.287-5.111s106.9,26.617,161.061,36.484c86.379,15.735,178.86,15.143,264.154-6.887,48.093-12.423,84.942-43.73,122.433-74.576,37.136-30.553,77.226-58.923,110.918-93.736,4.535-4.686,9.161-10,11.8-15.848" transform="matrix(-0.998, -0.07, 0.07, -0.998, 1649.398, 1073.876)" fill="#d3e8d7" opacity="0.7"/>
        </g>
      </g>
    </g>
  </g>
</svg>
